<?xml version="1.0" encoding="utf-8"?>
<!-- Generator: Adobe Illustrator 22.0.1, SVG Export Plug-In . SVG Version: 6.00 Build 0)  -->
<svg version="1.1" xmlns="http://www.w3.org/2000/svg" xmlns:xlink="http://www.w3.org/1999/xlink" x="0px" y="0px"
	 viewBox="0 0 500 500" style="enable-background:new 0 0 500 500;" xml:space="preserve">
<style type="text/css">
	.st0{fill:#9AD3F1;}
	.st1{opacity:0.49;}
	.st2{opacity:0.58;}
	.st3{fill:#83BDF1;}
	.st4{fill:#F9D0BB;}
	.st5{fill:#FFC23E;}
	.st6{fill:#F45677;}
	.st7{fill:#CC1A63;}
	.st8{opacity:0.58;fill:#F49A98;}
	.st9{fill:#F49A98;}
	.st10{opacity:0.2;fill:#CC1A63;}
	.st11{fill:#FFFFFF;}
	.st12{fill:#F9DECC;}
	.st13{fill:#560000;}
	.st14{opacity:0.31;fill:#560000;}
	.st15{fill:#E02F00;}
	.st16{fill:#FF9A3E;}
	.st17{opacity:0.51;fill:#FF9A3E;}
	.st18{fill:#FFD23E;}
	.st19{fill:#C9FFFF;}
	.st20{fill:#FF7F3E;}
	.st21{fill:#FF923E;}
	.st22{fill:#470000;}
	.st23{opacity:0.29;fill:#FFC23E;}
</style>
<g id="OBJECTS">
	<g>
		<path class="st0" d="M156.8,439v16.2c0,0.2-0.4,0.3-1.3,0.4c-0.9,0.1-1.8,0.1-2.7,0.1c-0.9,0-1.5,0-1.8-0.1
			c-0.3-0.1-0.4-0.2-0.4-0.4v-15.8c0-0.3,0.4-0.7,1.3-1c0.9-0.3,1.8-0.5,2.8-0.5C156.1,437.9,156.8,438.3,156.8,439z"/>
		<path class="st0" d="M165.4,455.9c-1.1,0-2.1-0.1-2.9-0.3c-0.8-0.2-1.6-0.5-2.2-1c-1.4-1-2.1-2.9-2.1-5.6c0-2.4,0.7-4.2,2.1-5.2
			c1.3-1,3-1.5,5.1-1.5c0.9,0,1.7,0,2.3,0.1c0.6,0.1,1.3,0.3,1.9,0.5c0.7,0.3,1.2,0.6,1.6,1.1c0.4,0.5,0.7,1.1,1,1.9
			c0.3,0.8,0.4,1.8,0.4,2.9c0,2.3-0.7,4-2,5.2C169.3,455.3,167.6,455.9,165.4,455.9z M164.6,451.5c0.1,0.5,0.2,0.9,0.3,1
			s0.3,0.2,0.5,0.2s0.3-0.1,0.5-0.2s0.2-0.4,0.3-1c0.1-0.5,0.1-1.2,0.1-2.1c0-0.8,0-1.5-0.1-1.9c0-0.4-0.1-0.8-0.1-1
			c-0.1-0.2-0.1-0.4-0.2-0.6c-0.1-0.2-0.3-0.3-0.5-0.3c-0.2,0-0.3,0.1-0.5,0.2c-0.1,0.1-0.2,0.4-0.3,1c-0.1,0.6-0.2,1.3-0.2,2.4
			C164.4,450.1,164.5,450.9,164.6,451.5z"/>
		<path class="st0" d="M181.6,454.2v-1.3h-0.2c-0.1,0.1-0.2,0.2-0.3,0.3c-0.2,0.1-0.5,0.3-1.1,0.5c-0.6,0.2-1.3,0.3-2,0.3
			c-0.8,0-1.4-0.1-1.9-0.3c-0.5-0.2-0.9-0.5-1.2-0.9c-0.3-0.3-0.5-0.8-0.7-1.4c-0.3-0.9-0.4-2.1-0.4-3.6c0-1.8,0.4-3.1,1.1-4.1
			c0.3-0.4,0.7-0.7,1.3-1c0.6-0.3,1.2-0.4,1.8-0.4c0.7,0,1.2,0.1,1.6,0.2c0.4,0.1,0.7,0.3,1,0.5c0.4,0.4,0.7,0.8,0.7,1.1l0,0.2h0.2
			l0.2-0.9c0.2-0.6,1.4-1,3.6-1c1,0,1.6,0.2,1.8,0.5c0.1,0.2,0.2,0.4,0.2,0.5s0,0.4,0,0.7v9.5c0,1.8-0.6,3.2-1.8,4.1
			c-1.2,0.9-2.9,1.4-5.1,1.4c-2.4,0-4-0.2-4.9-0.7c-0.4-0.2-0.6-0.4-0.6-0.7c0-0.4,0.1-1,0.4-1.8c0.3-0.9,0.6-1.3,0.8-1.3
			c0.1,0,0.3,0.1,0.6,0.2c1.2,0.3,2.1,0.5,2.8,0.5s1.2-0.1,1.5-0.3C181.4,454.9,181.6,454.6,181.6,454.2z M180.7,451.3
			c0.2,0,0.3-0.1,0.4-0.2c0.1-0.1,0.2-0.3,0.2-0.4V446c-0.1-0.3-0.2-0.5-0.5-0.5c-0.6,0-0.9,0.9-0.9,2.8c0,0.9,0.1,1.6,0.2,2.1
			C180.2,451,180.4,451.3,180.7,451.3z"/>
		<path class="st0" d="M196,455.9c-1.1,0-2.1-0.1-2.9-0.3c-0.8-0.2-1.6-0.5-2.2-1c-1.4-1-2.1-2.9-2.1-5.6c0-2.4,0.7-4.2,2.1-5.2
			c1.3-1,3-1.5,5.1-1.5c0.9,0,1.7,0,2.3,0.1c0.6,0.1,1.3,0.3,1.9,0.5c0.7,0.3,1.2,0.6,1.6,1.1c0.4,0.5,0.7,1.1,1,1.9
			c0.3,0.8,0.4,1.8,0.4,2.9c0,2.3-0.7,4-2,5.2C199.9,455.3,198.2,455.9,196,455.9z M195.2,451.5c0.1,0.5,0.2,0.9,0.3,1
			s0.3,0.2,0.5,0.2s0.3-0.1,0.5-0.2s0.2-0.4,0.3-1c0.1-0.5,0.1-1.2,0.1-2.1c0-0.8,0-1.5-0.1-1.9c0-0.4-0.1-0.8-0.1-1
			c-0.1-0.2-0.1-0.4-0.2-0.6c-0.1-0.2-0.3-0.3-0.5-0.3c-0.2,0-0.3,0.1-0.5,0.2c-0.1,0.1-0.2,0.4-0.3,1c-0.1,0.6-0.2,1.3-0.2,2.4
			C195,450.1,195.1,450.9,195.2,451.5z"/>
		<path class="st0" d="M223.4,448.1v7c0,0.2-0.4,0.3-1.3,0.4c-0.9,0.1-1.8,0.1-2.7,0.1c-0.9,0-1.5,0-1.8-0.1
			c-0.3-0.1-0.4-0.2-0.4-0.4v-7.2c0-0.7,0-1.1-0.1-1.3s-0.1-0.4-0.1-0.6c-0.1-0.3-0.3-0.4-0.6-0.4c-0.4,0-0.6,0.2-0.6,0.6v9
			c0,0.2-0.4,0.3-1.3,0.4c-0.9,0.1-1.7,0.1-2.7,0.1s-1.5,0-1.8-0.1c-0.3-0.1-0.4-0.2-0.4-0.4v-11.2c0-0.3,0.4-0.6,1.3-1
			c0.9-0.3,1.8-0.5,2.8-0.5c1,0,1.5,0.3,1.6,0.8l0.2,1h0.2c0.4-0.9,1.2-1.5,2.3-1.8c0.4-0.1,0.9-0.2,1.5-0.2c1.5,0,2.6,0.5,3.1,1.4
			C223.2,444.6,223.4,446.1,223.4,448.1z"/>
		<path class="st0" d="M232,455.9c-1.1,0-2.1-0.1-2.9-0.3c-0.8-0.2-1.6-0.5-2.2-1c-1.4-1-2.1-2.9-2.1-5.6c0-2.4,0.7-4.2,2.1-5.2
			c1.3-1,3-1.5,5.1-1.5c0.9,0,1.7,0,2.3,0.1c0.6,0.1,1.3,0.3,1.9,0.5c0.7,0.3,1.2,0.6,1.6,1.1c0.4,0.5,0.7,1.1,1,1.9
			c0.3,0.8,0.4,1.8,0.4,2.9c0,2.3-0.7,4-2,5.2C236,455.3,234.2,455.9,232,455.9z M231.2,451.5c0.1,0.5,0.2,0.9,0.3,1
			s0.3,0.2,0.5,0.2s0.3-0.1,0.5-0.2s0.2-0.4,0.3-1c0.1-0.5,0.1-1.2,0.1-2.1c0-0.8,0-1.5-0.1-1.9c0-0.4-0.1-0.8-0.1-1
			c-0.1-0.2-0.1-0.4-0.2-0.6c-0.1-0.2-0.3-0.3-0.5-0.3c-0.2,0-0.3,0.1-0.5,0.2c-0.1,0.1-0.2,0.4-0.3,1c-0.1,0.6-0.2,1.3-0.2,2.4
			C231.1,450.1,231.1,450.9,231.2,451.5z"/>
		<path class="st0" d="M249.6,455.5c-0.3,0.3-0.9,0.4-1.9,0.4c-1,0-1.8-0.1-2.4-0.2c-0.6-0.1-1.2-0.4-1.8-0.8
			c-1.1-0.7-1.7-2.3-1.7-4.6v-3.6h-1.1c-0.2,0-0.3-0.2-0.4-0.5c-0.1-0.3-0.2-0.8-0.2-1.4c0-0.6,0.1-1.1,0.3-1.6
			c0.2-0.5,0.4-0.7,0.7-0.7h0.7v-2.8c0-0.5,0.5-0.8,1.4-1.1c0.9-0.3,1.8-0.4,2.7-0.4c1.4,0,2.1,0.3,2.1,1v3.3h1.7
			c0.4,0,0.6,0.6,0.6,1.7c0,0.7-0.1,1.4-0.3,1.8c-0.2,0.5-0.4,0.7-0.7,0.7H248v4.2c0,0.4,0.2,0.7,0.5,0.9c0.3,0.2,0.7,0.3,0.9,0.3
			s0.4,0.1,0.5,0.4c0.1,0.3,0.1,0.6,0.1,1.2C250,454.6,249.9,455.2,249.6,455.5z"/>
		<path class="st0" d="M264.1,448.2v7c0,0.2-0.4,0.3-1.3,0.4c-0.8,0.1-1.9,0.1-3.1,0.1s-1.8-0.2-1.8-0.5v-7h-1.2
			c-0.4,0-0.6-0.7-0.6-2.1c0-0.5,0.1-1.1,0.3-1.5c0.2-0.5,0.4-0.7,0.7-0.7h0.8c0-1,0.1-1.9,0.4-2.7c0.3-0.8,0.7-1.3,1.1-1.7
			c0.4-0.4,0.9-0.7,1.5-1c0.9-0.4,1.9-0.5,3-0.5c2.8,0,4.2,0.5,4.2,1.4c0,1-0.1,1.8-0.3,2.5c-0.2,0.6-0.5,1-0.8,1
			c-0.1,0-0.4,0-0.8-0.1s-0.7-0.1-1.1-0.1c-0.9,0-1.3,0.3-1.3,0.9c0,0.2,0,0.3,0.1,0.5h3c0.4,0,0.6,0.7,0.6,2c0,0.6-0.1,1.1-0.3,1.6
			c-0.2,0.5-0.4,0.7-0.7,0.7H264.1z"/>
		<path class="st0" d="M276.5,455.9c-1.1,0-2.1-0.1-2.9-0.3c-0.8-0.2-1.6-0.5-2.2-1c-1.4-1-2.1-2.9-2.1-5.6c0-2.4,0.7-4.2,2.1-5.2
			c1.3-1,3-1.5,5.1-1.5c0.9,0,1.7,0,2.3,0.1c0.6,0.1,1.3,0.3,1.9,0.5c0.7,0.3,1.2,0.6,1.6,1.1s0.7,1.1,1,1.9
			c0.3,0.8,0.4,1.8,0.4,2.9c0,2.3-0.7,4-2,5.2C280.4,455.3,278.7,455.9,276.5,455.9z M275.7,451.5c0.1,0.5,0.2,0.9,0.3,1
			s0.3,0.2,0.5,0.2c0.2,0,0.3-0.1,0.5-0.2s0.2-0.4,0.3-1c0.1-0.5,0.1-1.2,0.1-2.1c0-0.8,0-1.5-0.1-1.9c0-0.4-0.1-0.8-0.1-1
			c-0.1-0.2-0.1-0.4-0.2-0.6c-0.1-0.2-0.3-0.3-0.5-0.3c-0.2,0-0.3,0.1-0.5,0.2c-0.1,0.1-0.2,0.4-0.3,1c-0.1,0.6-0.2,1.3-0.2,2.4
			C275.5,450.1,275.6,450.9,275.7,451.5z"/>
		<path class="st0" d="M289.6,455.9c-1.7,0-2.9-0.4-3.6-1.3s-1-2.4-1-4.6v-6.2c0-0.3,0.4-0.6,1.3-0.9c0.9-0.3,1.8-0.4,2.8-0.4
			c1.3,0,2,0.3,2,1v5.8c0,1.2,0,2,0.1,2.5c0.1,0.5,0.3,0.8,0.7,0.8c0.5,0,0.7-0.2,0.7-0.6v-8.2c0-0.3,0.5-0.6,1.4-0.9s2-0.4,3.1-0.4
			s1.7,0.3,1.7,0.9v11.7c0,0.2-0.5,0.4-1.4,0.5s-1.9,0.1-2.8,0.1c-0.9,0-1.4-0.1-1.4-0.4l-0.2-1.5h-0.2c-0.1,0.5-0.4,1-0.8,1.3
			c-0.2,0.2-0.5,0.3-0.9,0.5C290.6,455.8,290.2,455.9,289.6,455.9z"/>
		<path class="st0" d="M314.2,448.1v7c0,0.2-0.4,0.3-1.3,0.4c-0.9,0.1-1.8,0.1-2.7,0.1c-0.9,0-1.5,0-1.8-0.1
			c-0.3-0.1-0.4-0.2-0.4-0.4v-7.2c0-0.7,0-1.1-0.1-1.3c-0.1-0.2-0.1-0.4-0.1-0.6c-0.1-0.3-0.3-0.4-0.6-0.4c-0.4,0-0.6,0.2-0.6,0.6v9
			c0,0.2-0.4,0.3-1.3,0.4c-0.9,0.1-1.7,0.1-2.7,0.1s-1.5,0-1.8-0.1c-0.3-0.1-0.4-0.2-0.4-0.4v-11.2c0-0.3,0.4-0.6,1.3-1
			c0.9-0.3,1.8-0.5,2.8-0.5s1.5,0.3,1.6,0.8l0.2,1h0.2c0.4-0.9,1.2-1.5,2.3-1.8c0.4-0.1,0.9-0.2,1.5-0.2c1.5,0,2.6,0.5,3.1,1.4
			S314.2,446.1,314.2,448.1z"/>
		<path class="st0" d="M320.1,455.9c-0.6,0-1.1-0.1-1.6-0.3c-0.5-0.2-0.9-0.4-1.2-0.6c-0.3-0.2-0.6-0.6-0.8-1
			c-0.2-0.4-0.4-0.8-0.5-1.2c-0.1-0.4-0.2-0.8-0.3-1.4c-0.1-0.8-0.1-1.7-0.1-2.8c0-2.1,0.4-3.7,1.2-4.8c0.8-1.1,1.8-1.7,3.2-1.7
			c1.4,0,2.4,0.3,3,1c0.1,0.2,0.2,0.3,0.3,0.5h0.2l-0.3-1.6v-2.8c0-0.3,0.4-0.7,1.3-1c0.9-0.3,1.8-0.5,2.8-0.5c1,0,1.7,0.2,2,0.6
			c0.1,0.2,0.2,0.3,0.2,0.5v16.2c0,0.2-0.4,0.3-1.3,0.4c-0.8,0.1-1.7,0.1-2.4,0.1c-0.8,0-1.3,0-1.5-0.1c-0.2-0.1-0.4-0.1-0.4-0.2
			c-0.1-0.1-0.1-0.2-0.1-0.3l-0.2-1.3h-0.2c-0.1,0.5-0.4,1-0.8,1.3C322,455.7,321.2,455.9,320.1,455.9z M322.7,452.6
			c0.2,0,0.4-0.2,0.5-0.5V446c0-0.2-0.1-0.3-0.2-0.4c-0.2-0.1-0.3-0.1-0.4-0.1c-0.5,0-0.8,1.2-0.8,3.6c0,1.3,0.1,2.2,0.2,2.7
			C322.1,452.3,322.4,452.6,322.7,452.6z"/>
		<path class="st0" d="M335.9,453.5c0,0.9-0.2,1.5-0.6,1.8s-1,0.5-1.8,0.5s-1.4-0.2-1.8-0.5s-0.6-0.9-0.6-1.8c0-0.9,0.2-1.5,0.6-1.8
			c0.4-0.3,1-0.4,1.8-0.4c0.8,0,1.4,0.1,1.8,0.4C335.7,452.1,335.9,452.7,335.9,453.5z"/>
		<path class="st0" d="M342.6,453.5c0,0.9-0.2,1.5-0.6,1.8s-1,0.5-1.8,0.5s-1.4-0.2-1.8-0.5s-0.6-0.9-0.6-1.8c0-0.9,0.2-1.5,0.6-1.8
			c0.4-0.3,1-0.4,1.8-0.4c0.8,0,1.4,0.1,1.8,0.4C342.4,452.1,342.6,452.7,342.6,453.5z"/>
		<path class="st0" d="M349.3,453.5c0,0.9-0.2,1.5-0.6,1.8s-1,0.5-1.8,0.5s-1.4-0.2-1.8-0.5s-0.6-0.9-0.6-1.8c0-0.9,0.2-1.5,0.6-1.8
			c0.4-0.3,1-0.4,1.8-0.4c0.8,0,1.4,0.1,1.8,0.4C349.1,452.1,349.3,452.7,349.3,453.5z"/>
	</g>
	<g>
		<path class="st0" d="M422.6,332.3c12.9-25.8,20.1-55,20.1-85.8C442.7,140,356.4,53.7,250,53.7S57.3,140,57.3,246.4
			c0,30.8,7.3,60,20.1,85.8H422.6z"/>
		<g class="st1">
			<g class="st2">
				<path class="st3" d="M360.6,353.4C360.6,353.4,360.6,353.4,360.6,353.4c0.1-0.1,0.1-0.1,0.1-0.2c0-0.1,0.1-0.1,0.1-0.2
					c0-0.1,0.1-0.1,0.1-0.2c0,0,0,0,0-0.1c0,0,0,0,0,0c0,0,0-0.1,0.1-0.1c0-0.1,0.1-0.1,0.1-0.2c0-0.1,0.1-0.2,0.1-0.3
					c0-0.1,0.1-0.1,0.1-0.2c0,0,0,0,0,0c0,0,0,0,0,0c0-0.1,0.1-0.1,0.1-0.2c0-0.1,0.1-0.2,0.1-0.2c0-0.1,0.1-0.2,0.1-0.3
					c0-0.1,0.1-0.2,0.1-0.3c0-0.1,0.1-0.2,0.1-0.3c0-0.1,0.1-0.2,0.1-0.3c0-0.1,0.1-0.2,0.1-0.3c0-0.1,0-0.2,0.1-0.3
					c0-0.1,0.1-0.2,0.1-0.4c0-0.1,0-0.2,0.1-0.3c0-0.1,0.1-0.2,0.1-0.4c0-0.1,0-0.2,0.1-0.3c0-0.1,0-0.3,0.1-0.4
					c0-0.1,0-0.2,0.1-0.3c0-0.1,0-0.3,0.1-0.4c0-0.1,0-0.2,0.1-0.4c0-0.1,0-0.3,0.1-0.4c0-0.1,0-0.3,0-0.4c0-0.1,0-0.3,0.1-0.4
					c0-0.1,0-0.3,0-0.4c0-0.1,0-0.3,0-0.4c0-0.1,0-0.3,0-0.4c0-0.1,0-0.3,0-0.4c0-0.1,0-0.3,0-0.4c0-0.1,0-0.3,0-0.4
					c0-0.1,0-0.3,0-0.4c0-0.1,0-0.3,0-0.4c0-0.2,0-0.3,0-0.5c0-0.1,0-0.3,0-0.4c0-0.2,0-0.3,0-0.5c0-0.1,0-0.3,0-0.4
					c0-0.2,0-0.3,0-0.5c0-0.1,0-0.3,0-0.4c0-0.2,0-0.3,0-0.5c0-0.1,0-0.3,0-0.4c0-0.1,0-0.2,0-0.3c0-0.1,0-0.1,0-0.2
					c0-0.1,0-0.3,0-0.4c0-0.2,0-0.4,0-0.6c0-0.1,0-0.3,0-0.4c0-0.1,0-0.3,0-0.4c0-0.1,0-0.1,0-0.2c0-0.1,0-0.2,0-0.4
					c0-0.2,0-0.4,0-0.6c0-0.1,0-0.2,0-0.3c0-0.2,0-0.4,0-0.7c0-0.1,0-0.2,0-0.3c0-0.2,0-0.5,0-0.7c0-0.1,0-0.2,0-0.2
					c0-0.2,0-0.5,0-0.7c0-0.1,0-0.1,0-0.2c0-0.3,0-0.5,0-0.8c0,0,0-0.1,0-0.1c-0.2-2.6-0.4-5.1-0.8-7.4c-0.2-1.5-0.5-2.9-0.8-4.2
					c-0.2-0.8-0.4-1.5-0.6-2.2c-0.5-1.7-1.1-3-1.8-3.8l0,0c0-0.1-0.1-0.1-0.1-0.2c0-0.1-0.1-0.1-0.1-0.1c0,0,0,0,0,0
					c-0.1-0.1-0.2-0.2-0.3-0.2c0,0,0,0,0,0c0,0-0.1-0.1-0.1-0.1c0,0-0.1,0-0.1-0.1c0,0,0,0,0,0c-0.1-0.1-0.2-0.1-0.3-0.1
					c0,0,0,0,0,0c-0.1,0-0.2-0.1-0.3-0.1c0,0,0,0,0,0c-0.1,0-0.1,0-0.2,0c0,0-0.1,0-0.1,0c0,0,0,0,0,0c-0.1,0-0.2,0-0.3,0
					c0,0,0,0,0,0c-0.1,0-0.2,0.1-0.3,0.1c0,0,0,0,0,0c-0.3,0.1-0.6,0.3-0.9,0.6c-0.9,0.9-1.7,1.9-2.3,3.1c-0.3,0.6-0.6,1.2-0.9,1.9
					c-0.5,1.3-0.9,2.7-1.2,4.1c-0.1,0.4-0.1,0.7-0.2,1.1c-0.1,0.4-0.1,0.8-0.2,1.2c-0.1,0.6-0.2,1.3-0.2,1.9c0,0.4-0.1,0.8-0.1,1.2
					c0,0.7-0.1,1.4-0.1,2.1c0,0.7,0,1.4,0,2c0,2.6,0.2,4.8,0.3,6.1c0,0.2,0,0.3,0,0.4c0.1,0.5,0.1,0.8,0.1,0.8s-3-1.8-7.3-4.4
					c-0.1,0-0.1-0.1-0.2-0.1c-0.6-0.4-1.2-0.7-1.9-1.1c0,0,0,0,0,0c-0.6-0.4-1.2-0.7-1.8-1.1c-0.1-0.1-0.3-0.2-0.4-0.3
					c-0.6-0.3-1.1-0.7-1.7-1c-0.1-0.1-0.2-0.1-0.4-0.2c-0.7-0.4-1.3-0.8-2-1.2c-0.1-0.1-0.3-0.2-0.4-0.2c-0.6-0.3-1.2-0.7-1.7-1
					c-0.1-0.1-0.3-0.2-0.4-0.2c-0.7-0.4-1.4-0.8-2.1-1.2c0,0,0,0,0,0l0,0c-4.1-2.4-8-4.7-10.8-6.3c2.9-0.8,4.9-1.1,4.9-1.1v0l0,0
					c0,0-34.6-22-41.5-29.3h0c0,0,0,0-0.1-0.1c-0.1-0.1-0.2-0.2-0.3-0.3c-0.2-0.2-0.3-0.4-0.4-0.6c0,0,0,0,0,0c0,0,0,0,0,0
					c-0.1-0.2-0.2-0.4-0.4-0.6c-0.1-0.1-0.1-0.2-0.2-0.4c-0.1-0.1-0.1-0.2-0.2-0.3c-0.1-0.2-0.2-0.4-0.3-0.6c0-0.1,0-0.1-0.1-0.2
					c-0.1-0.3-0.2-0.5-0.3-0.8l0,0c-1.5-3.9-3.3-10.4-4.8-17.2l1.7-0.7c0.1,0.3,0.3,0.5,0.4,0.8c0,0,0,0,0,0
					c2.1,3.6,4.6,7.2,7.6,10.3l0,0l0,0c0.9,1,1.9,1.9,2.9,2.8c0,0,0,0,0,0l0,0c0.9,0.8,1.9,1.6,2.9,2.4c0,0,0.1,0,0.1,0.1
					c1,0.7,2,1.4,3,2c0.1,0,0.1,0.1,0.2,0.1c0.4,0.2,0.9,0.5,1.4,0.7c0.1,0,0.2,0.1,0.3,0.1c0.5,0.2,1,0.5,1.6,0.7
					c0.1,0,0.2,0.1,0.2,0.1c0.4,0.2,0.9,0.3,1.3,0.5c0.1,0,0.3,0.1,0.4,0.1c0.5,0.2,1.1,0.3,1.6,0.5c0.4,0.1,0.7,0.2,1.1,0.2
					c0.1,0,0.3,0,0.4,0.1c2.1,0.3,4.1,0.1,5.9-0.6c3-1,5.6-3.1,7.9-5.5c0.6-0.6,1.1-1.2,1.7-1.9c4.9-5.9,4.8-12.5,6.5-19.3l0.2,0.5
					l0,0l0.2,0.6l0.4,1.1l0,0l0.9,2.6l0,0l0.3,1l2.3-9.3c0.4,0,0.8,0,1.1-0.1c0.1,0,0.1,0,0.2-0.1c0.2-0.1,0.5-0.1,0.7-0.2
					c0.2-0.1,0.3-0.1,0.5-0.2c0.1,0,0.2-0.1,0.4-0.1c0.2-0.1,0.4-0.2,0.6-0.2c0.1,0,0.1-0.1,0.2-0.1c0.2-0.1,0.4-0.2,0.6-0.3
					c0,0,0.1,0,0.1,0c0.2-0.1,0.4-0.3,0.6-0.4c0,0,0,0,0,0c5.5-3.7,3.5-11.7-0.4-17.3l2-8.2l0,0l0.1-0.3l0.2-1h2.4V228h-26.5v2.8
					h2.5l1.5,4.6l0,0l0.5,1.5l0,0l0.1,0.2l0,0l0,0l0.2,0.8l0.1,0.3l0.3,0.9c-10.6,5-2.7,19.3-2.7,19.3c0.6,0.4,1.1,0.8,1.6,1.1
					c-1.1,4.7-0.9,9.9-3.2,14.1c-1.1,2-2.7,3.8-4.4,5.3c-2.5,2.3-4.7,2.2-7.6,0.7c-5.4-2.8-10-7.2-13.4-12.3c-0.5-0.8-1-1.6-1.5-2.4
					l3.6-1.5c0,0-0.3-1-0.9-2.4l0,0c0,0,0,0,0,0c-0.2-0.5-0.5-1.1-0.8-1.7c0,0,0-0.1-0.1-0.1c-0.3-0.6-0.7-1.3-1.1-2
					c0,0,0-0.1-0.1-0.1c-0.2-0.3-0.4-0.6-0.6-0.9c0,0-0.1-0.1-0.1-0.1c-0.4-0.7-0.9-1.4-1.5-2.1c0-0.1-0.1-0.1-0.1-0.2
					c-0.6-0.7-1.2-1.4-1.8-2.1c0,0-0.1-0.1-0.1-0.1c-0.3-0.3-0.6-0.6-1-0.9c0,0,0,0-0.1-0.1c-0.7-0.7-1.5-1.3-2.3-1.8
					c0,0-0.1-0.1-0.1-0.1c-0.8-0.6-1.7-1.1-2.7-1.5c0,0-0.1,0-0.1-0.1c-0.5-0.2-0.9-0.4-1.4-0.6c0,0,0,0-0.1,0
					c-0.5-0.2-1.1-0.3-1.6-0.5l0,0v0c-0.7-0.2-1.5-0.3-2.3-0.4c-6.4-4-12.4-5.7-18-5.9c0-0.3,0.1-0.5,0.1-0.8c0-0.1,0-0.2,0-0.3
					c0.1-0.5,0.1-1.1,0.2-1.7c0-0.1,0-0.1,0-0.2c0-0.5,0.1-1.1,0.1-1.7c0-0.1,0-0.1,0-0.2c12.7-1.4,24.3-5.3,31.1-11.6
					c5.6-0.4,16.1-2.5,17.5-11.8c1.2-8.5-3.3-10.4-6.5-10.7c0.1-0.1,0.1-0.2,0.2-0.3c1.7-3.4,3.6-4.2,3.4-13.7c0-1-0.1-2.3-0.2-3.7
					c3.1,1.8,9,5.1,10.2,3.9c1.5-1.5-0.9-7.3-10.4-5.5c-0.6-4.8-2.1-10.9-5.8-16.7c0.1,0,0.1-0.1,0.2-0.2c0.8-0.8,1.2-2,1.3-3.4
					c3.1,1.7,6.3,2.6,9.6,3.1c-1.1,0.7-2.3,1.5-3.5,2.5c0,0,15.7,2.1,16.7-0.6c0.2-0.6,0-1.5-0.5-2.2c10.3-1.8,18.4-6.3,18.4-6.3
					l-10.4-0.6c6.3-2.5,17.7-9.8,17.7-9.8l5.7,0.9c-2.9-5.2-7.3-8.9-11.8-11.5v0c0,0,0,0,0,0c-1-0.6-1.9-1.1-2.9-1.5c0,0,0,0,0,0
					c-0.5-0.2-0.9-0.4-1.4-0.6c0,0,0,0,0,0c-3.2-1.4-6.2-2.3-8.2-2.8c0,0,0,0,0,0c-0.3-0.1-0.5-0.1-0.8-0.2c0,0,0,0,0,0
					c-0.5-0.1-0.9-0.2-1.2-0.3c0,0,0,0,0,0c-0.1,0-0.2,0-0.3-0.1c0,0-0.1,0-0.1,0c-0.1,0-0.1,0-0.2,0c0,0,0,0-0.1,0c0,0,0,0,0,0
					c0,0,0,0,0,0l4.4-3.8c-0.3-0.1-0.6-0.1-0.9-0.1l0,0c0,0,0,0,0,0c-12.9-1.7-23.7,5.2-23.7,5.2l0.9-4.7c-0.6,0.3-1.1,0.5-1.6,0.8
					c-0.2,0.1-0.3,0.2-0.5,0.3c-0.3,0.2-0.7,0.4-1,0.6c-0.2,0.1-0.4,0.3-0.6,0.4c-0.3,0.2-0.6,0.4-0.8,0.6c-0.2,0.1-0.4,0.3-0.5,0.4
					c-0.3,0.2-0.5,0.4-0.7,0.6c-0.2,0.1-0.3,0.3-0.5,0.4c-0.2,0.2-0.5,0.4-0.7,0.6c-0.2,0.2-0.3,0.3-0.5,0.5
					c-0.2,0.2-0.4,0.4-0.6,0.6c-0.1,0.2-0.3,0.3-0.4,0.5c-0.2,0.2-0.4,0.5-0.6,0.7c-0.1,0.1-0.2,0.3-0.4,0.4
					c-0.2,0.2-0.4,0.5-0.5,0.7c-0.1,0.1-0.2,0.3-0.3,0.4c-0.2,0.3-0.4,0.6-0.5,0.8c-0.1,0.1-0.1,0.2-0.2,0.3c-0.2,0.3-0.4,0.7-0.6,1
					c0,0-0.1,0.1-0.1,0.1c-0.9,1.6-1.5,3.3-2,4.9c0,0,0,0,0,0c-0.1,0.4-0.2,0.8-0.3,1.2c0,0,0,0,0,0c-0.1,0.4-0.2,0.8-0.3,1.2
					c0,0,0,0,0,0l0,0c-0.5,2.8-0.6,5.3-0.5,7c-3-0.7-3.9,0.5-3.9,0.5c-0.3,0.2-0.5,0.5-0.6,0.7c-6.2-4-14.6-6.8-26.1-7.6l0.5,0.9
					c-1.5-0.8-3.3-1.6-5.6-2.1c-0.1,0-0.1,0-0.2,0c-0.4-0.1-0.7-0.2-1.1-0.2c-0.1,0-0.2,0-0.3-0.1c-0.4-0.1-0.8-0.1-1.2-0.2
					c-0.1,0-0.2,0-0.2,0c-1-0.1-2-0.2-3-0.3c-0.1,0-0.3,0-0.4,0c-0.4,0-0.8,0-1.2,0c-0.2,0-0.4,0-0.5,0c-0.4,0-0.8,0-1.2,0
					c-0.2,0-0.4,0-0.6,0c-0.5,0-0.9,0.1-1.4,0.1c-0.1,0-0.3,0-0.4,0c-0.6,0.1-1.2,0.1-1.8,0.2c-0.2,0-0.3,0-0.5,0.1
					c-0.5,0.1-1,0.1-1.5,0.2c-0.2,0-0.5,0.1-0.7,0.1c-0.4,0.1-0.9,0.2-1.3,0.3c-0.2,0.1-0.5,0.1-0.7,0.2c-0.5,0.1-0.9,0.2-1.4,0.4
					c-0.2,0.1-0.4,0.1-0.7,0.2c-0.7,0.2-1.4,0.4-2.2,0.6c-0.1,0-0.3,0.1-0.5,0.2c0,0,0,0,0,0c-0.5,0.2-1.1,0.4-1.6,0.7c0,0,0,0,0,0
					l0,0c-0.6,0.3-1.2,0.8-1.6,1.4c-0.1,0-0.2,0-0.4,0.1c-0.4,0.1-0.8,0.1-1.2,0.2c-0.8,0.1-1.7,0.3-2.5,0.5l0,0
					c-6.7,1.4-12,3.6-16.2,6.3c-0.2-0.3-0.4-0.5-0.6-0.7c0,0-0.8-1.3-3.9-0.5c0.3-3.6-0.2-10-3.9-15.9c0-0.1-0.1-0.1-0.1-0.2
					c-0.3-0.5-0.6-0.9-0.9-1.4c0,0,0,0,0,0c-0.4-0.5-0.7-0.9-1.1-1.4c-0.1-0.1-0.1-0.1-0.2-0.2c-0.3-0.4-0.7-0.7-1-1.1
					c-0.1-0.1-0.2-0.2-0.3-0.3c-0.4-0.4-0.8-0.8-1.3-1.2c0,0-0.1-0.1-0.1-0.1c-0.5-0.4-1-0.8-1.5-1.2c-0.1-0.1-0.3-0.2-0.4-0.3
					c-0.4-0.3-0.9-0.6-1.3-0.8c-0.2-0.1-0.3-0.2-0.5-0.3c-0.6-0.3-1.2-0.7-1.9-1v0l0,0l0.9,4.7c0,0-0.2-0.1-0.5-0.3
					c-0.2-0.1-0.4-0.2-0.6-0.3c-0.1-0.1-0.3-0.1-0.4-0.2c-0.6-0.3-1.3-0.6-2.1-1c-0.2-0.1-0.4-0.2-0.7-0.3c-0.4-0.2-0.9-0.4-1.4-0.6
					c-0.5-0.2-1-0.4-1.6-0.6c-0.3-0.1-0.6-0.2-0.9-0.3c-0.6-0.2-1.2-0.4-1.8-0.5c-0.3-0.1-0.6-0.2-1-0.2c-3.9-1-8.6-1.5-13.6-0.6h0
					l0,0l4.4,3.8c0,0,0,0,0,0c0,0,0,0,0,0c0,0-0.1,0-0.1,0c0,0,0,0-0.1,0c0,0-0.1,0-0.1,0c-0.2,0-0.4,0.1-0.7,0.1c0,0,0,0,0,0
					c-0.1,0-0.2,0-0.4,0.1c0,0,0,0,0,0c-3.4,0.7-11.7,3-18.6,8.6c0,0,0,0,0,0l0,0c-2.7,2.2-5.1,4.9-7,8.2l5.7-0.9
					c0,0,11.4,7.3,17.7,9.8l-10.4,0.6c0,0,6.6,3.7,15.5,5.8c-0.5,0.7-0.7,1.5-0.5,2.1c1,2.7,16.7,0.6,16.7,0.6
					c-0.7-0.6-1.5-1.2-2.2-1.7c3.8-0.4,7.6-1.4,11.2-3.3c0,1.3,0.4,2.5,1.3,3.4c0.1,0.1,0.1,0.1,0.2,0.2c-0.9,1.4-1.6,2.8-2.3,4.2
					c-2.3,0.9-3.2,2.8-2.6,3.8c0.1,0.2,0.5,0.4,0.9,0.5c-1.8,5.5-2.1,10.5-2.2,13.6c-0.2,7.7,1,9.7,2.4,12
					c-3.2,0.3-7.8,2.2-6.5,10.7c1.3,8.8,10.7,11.1,16.4,11.7c7.8,7.8,23,12,38.8,12.4c0,0.1,0,0.2,0,0.4c0,0.2,0,0.3,0,0.5
					c0,0.2,0,0.5,0.1,0.7c0,0.2,0,0.4,0.1,0.7c0,0.1,0,0.3,0.1,0.4c0,0.2,0.1,0.5,0.1,0.7c0,0.1,0,0.3,0.1,0.4
					c0,0.2,0.1,0.4,0.1,0.7c-0.6,0.4-1.8,1.4-3.2,2.6c-5.4,1.9-9.9,4.1-13.2,4.9c0,0,0,0.5,0,1.4c-0.6,0.1-1.4,0.3-2.4,0.9l0,0h0
					c-0.1,0.1-0.3,0.2-0.4,0.2c0,0,0,0,0,0c-0.1,0.1-0.3,0.2-0.5,0.3c0,0,0,0,0,0c-0.2,0.1-0.3,0.2-0.5,0.3c0,0,0,0,0,0
					c-0.2,0.1-0.4,0.3-0.5,0.4c0,0,0,0,0,0c-0.2,0.1-0.4,0.3-0.6,0.5c0,0,0,0,0,0c-2.2,1.9-4.8,4.9-7.8,10c0,0,0,0,0,0h0
					c-0.6,1-1.2,2.1-1.8,3.3l4.6,2.4c-4.6,15-12.5,32.7-27,38c-1.2,0.4-2.1,1.2-2.7,2c-1.7-0.1-17.5,3.3-20.4,17.8
					c0,0,0.2,3.5,3,3.7c2.7,0.2,8.4-10.1,10.4-10.6c0.1,0,0.2,0,0.2,0c0.1,0.3,0.2,0.7,0.3,1c-0.4,1.2-1.2,3,0,4
					c1.1,0.8,7.4-2.8,10.2-6.9c0.6,0,1.2-0.1,1.9-0.4c0.4-0.1,0.7-0.3,1.1-0.4c0.4,0.1,0.9,0.3,1.3,0.5c-0.1,0.1-0.2,0.1-0.3,0.2
					c-0.1,0.1-0.3,0.1-0.4,0.2c-0.1,0.1-0.2,0.1-0.4,0.2l0,0c0,0,0,0,0,0c0,0-0.1,0-0.1,0.1c-0.1,0.1-0.2,0.1-0.4,0.2
					c-0.2,0.1-0.4,0.2-0.6,0.3c-0.1,0.1-0.2,0.1-0.3,0.2c-0.3,0.1-0.5,0.3-0.8,0.4c0,0,0,0,0,0l0,0c-0.2,0.1-0.4,0.2-0.7,0.4
					c-0.1,0-0.2,0.1-0.2,0.1c-0.3,0.2-0.6,0.3-0.9,0.5c-0.1,0.1-0.2,0.1-0.3,0.2c-0.3,0.2-0.7,0.4-1,0.6c-0.1,0.1-0.2,0.1-0.3,0.2
					c-0.4,0.2-0.7,0.4-1.1,0.6c-0.1,0-0.2,0.1-0.3,0.1c-0.4,0.2-0.8,0.4-1.2,0.7c-0.1,0-0.1,0.1-0.2,0.1c-0.4,0.2-0.8,0.5-1.3,0.7
					c0,0,0,0,0,0v0c-2.9,1.7-5.9,3.5-8.9,5.3v0c0,0,0,0,0,0c-0.2,0.1-0.3,0.2-0.5,0.3c-0.3,0.2-0.6,0.4-1,0.6
					c-0.2,0.1-0.5,0.3-0.7,0.4c-0.3,0.2-0.5,0.3-0.8,0.5c-0.2,0.1-0.3,0.2-0.5,0.3c-0.3,0.2-0.6,0.4-0.9,0.6
					c-0.2,0.1-0.3,0.2-0.5,0.3c-0.3,0.2-0.6,0.3-0.8,0.5c-0.2,0.1-0.4,0.2-0.6,0.3c-0.2,0.1-0.5,0.3-0.7,0.4
					c-0.2,0.1-0.3,0.2-0.5,0.3c-1.2,0.7-2.3,1.4-3.3,2c0,0,0,0,0,0c-0.3,0.2-0.6,0.4-0.8,0.5c0,0,0,0,0,0c-0.3,0.2-0.5,0.3-0.7,0.4
					c0,0,0,0,0,0c-0.9,0.5-1.4,0.9-1.4,0.9c0,0,0.8-6,0.3-12.6c-0.1-0.7-0.1-1.5-0.3-2.2c-0.1-0.7-0.2-1.5-0.4-2.2
					c-0.3-1.4-0.7-2.8-1.2-4.1c-0.3-0.6-0.5-1.3-0.9-1.9c-0.6-1.2-1.4-2.2-2.3-3.1c-0.3-0.3-0.6-0.5-0.9-0.6c0,0,0,0,0,0
					c-0.1,0-0.2-0.1-0.3-0.1c0,0,0,0,0,0c-0.1,0-0.2,0-0.3,0c0,0,0,0,0,0c0,0-0.1,0-0.1,0c-0.1,0-0.1,0-0.2,0c0,0,0,0,0,0
					c-0.1,0-0.2,0-0.3,0.1c0,0,0,0,0,0c-0.1,0-0.2,0.1-0.3,0.1c0,0,0,0,0,0c-0.1,0.1-0.2,0.1-0.3,0.2c0,0,0,0,0,0
					c-0.1,0.1-0.2,0.2-0.3,0.2c0,0,0,0,0,0c-0.1,0.1-0.2,0.2-0.3,0.3l0,0c-1.8,2.2-3,7.6-3.7,13.9c-0.1,1.2-0.2,2.4-0.3,3.7
					c0,0,0,0.1,0,0.1c0,0.3,0,0.5,0,0.8c0,0.1,0,0.1,0,0.2c0,0.2,0,0.5,0,0.7c0,0.1,0,0.2,0,0.2c0,0.1,0,0.1,0,0.2
					c0,0.2,0,0.4,0,0.5c0,0.1,0,0.2,0,0.3c0,0.2,0,0.5,0,0.7c0,0.1,0,0.2,0,0.3c0,0.2,0,0.4,0,0.6c0,0.1,0,0.2,0,0.3
					c0,0.2,0,0.4,0,0.6c0,0.1,0,0.3,0,0.4c0,0.2,0,0.4,0,0.6c0,0.1,0,0.3,0,0.4c0,0.2,0,0.4,0,0.5c0,0.1,0,0.3,0,0.4
					c0,0.2,0,0.4,0,0.5c0,0.1,0,0.3,0,0.4c0,0.1,0,0.1,0,0.2c0,0.1,0,0.2,0,0.3c0,0.1,0,0.3,0,0.4c0,0.2,0,0.3,0,0.5
					c0,0.1,0,0.3,0,0.4c0,0.2,0,0.3,0,0.5c0,0.1,0,0.3,0,0.4c0,0.1,0,0.2,0,0.2c0,0.1,0,0.1,0,0.2c0,0.1,0,0.3,0,0.4
					c0,0.1,0,0.3,0,0.4c0,0.1,0,0.3,0,0.4c0,0.1,0,0.2,0,0.2c0,0.1,0,0.1,0,0.2c0,0.1,0,0.3,0,0.4c0,0.1,0,0.3,0,0.4
					c0,0.1,0,0.3,0.1,0.4c0,0.1,0,0.3,0.1,0.4c0,0.1,0,0.3,0.1,0.4c0,0.1,0,0.2,0.1,0.4c0,0.1,0,0.3,0.1,0.4c0,0.1,0,0.2,0.1,0.3
					c0,0.1,0,0.3,0.1,0.4c0,0.1,0,0.2,0.1,0.3c0,0.1,0.1,0.3,0.1,0.4c0,0.1,0,0.2,0.1,0.3c0,0.1,0.1,0.2,0.1,0.4
					c0,0.1,0,0.2,0.1,0.3c0,0.1,0.1,0.2,0.1,0.3c0,0.1,0.1,0.2,0.1,0.3c0,0.1,0.1,0.2,0.1,0.3c0,0.1,0.1,0.2,0.1,0.3
					c0,0.1,0.1,0.2,0.1,0.3c0,0.1,0.1,0.2,0.1,0.2c0,0.1,0.1,0.2,0.1,0.3c0,0.1,0,0.1,0.1,0.2l0,0l0,0c0,0,0,0,0,0
					c0,0.1,0.1,0.2,0.1,0.3c0,0.1,0.1,0.1,0.1,0.2c0,0,0,0,0,0.1c0,0,0,0,0,0.1c0,0,0,0.1,0.1,0.1c0,0,0,0,0,0
					c0,0.1,0.1,0.1,0.1,0.2c0,0,0,0.1,0.1,0.1c0,0,0,0.1,0.1,0.1c0,0,0,0,0.1,0.1c0,0,0,0.1,0.1,0.1c0,0.1,0.1,0.1,0.1,0.2
					c0,0,0,0.1,0.1,0.1c0,0,0,0,0,0c0,0,0,0,0,0c0.1,0.1,0.2,0.2,0.3,0.2l1.7-0.6v0l12.3-4.4v0l41.7-14.9
					c12.9,13.4,37.7,13.5,54.7,12.5c10.8-0.6,32.4-1.3,41.6-10l44.8,16l0,0l12.3,4.4v0l1.7,0.6c0.1-0.1,0.2-0.2,0.3-0.2
					c0,0,0.1-0.1,0.1-0.1C360.5,353.5,360.6,353.5,360.6,353.4C360.6,353.4,360.6,353.4,360.6,353.4z M260.5,152.1
					c0.6,0.1,1.3,0.3,2.2,0.6c-0.1,0-0.1,0-0.2,0.1c-0.7-0.1-1.4-0.3-2.1-0.4C260.4,152.3,260.5,152.2,260.5,152.1z M220.9,289.3
					c0,0.1-0.1,0.2-0.1,0.3l0,0c-0.2,0.5-0.4,0.9-0.6,1.4c0,0-0.1,0.1-0.1,0.1c-0.4,0.7-0.8,1.3-1.3,1.9c0,0-0.1,0.1-0.1,0.1
					c-0.5,0.7-1.1,1.3-1.8,1.9h0c-0.1,0.1-0.1,0.1-0.2,0.2c-0.1,0.1-0.2,0.2-0.4,0.4c-0.2,0.2-0.4,0.4-0.6,0.6
					c-0.1,0.1-0.2,0.2-0.3,0.3c-0.3,0.3-0.6,0.5-1,0.8c-0.1,0.1-0.3,0.2-0.4,0.3c-0.2,0.2-0.4,0.3-0.6,0.5c-0.1,0.1-0.3,0.2-0.4,0.3
					c-0.2,0.1-0.4,0.3-0.6,0.4c-0.1,0.1-0.3,0.2-0.4,0.3c-0.2,0.2-0.4,0.3-0.7,0.5c-0.1,0.1-0.3,0.2-0.4,0.3c-0.3,0.2-0.7,0.4-1,0.7
					c-0.2,0.1-0.3,0.2-0.5,0.3c-0.2,0.1-0.4,0.2-0.6,0.4c-0.1,0.1-0.2,0.1-0.3,0.2c6.3-7.9,10.8-17.6,14.1-27.2
					C222.3,280.6,221.7,286.6,220.9,289.3z"/>
			</g>
			<g class="st2">
				<path class="st3" d="M187.5,182.9c-10.9-2.9-13.7,3.4-12.1,5.1C177,189.5,187.5,182.9,187.5,182.9z"/>
			</g>
		</g>
		<g>
			<g>
				<path class="st4" d="M195,320.9c-2.1,0.2-35.5,20.7-35.5,20.7s2.7-19.1-4.8-26c-7.4-6.9-10.1,36.1-4.2,40.8l62.6-22.3
					C213.1,334.1,199.8,320.3,195,320.9z"/>
				<path class="st5" d="M173.4,333.2c-7.4,4.4-13.9,8.4-13.9,8.4s0-0.3,0.1-0.8c-3.7,3.5-7.7,7.5-11.2,11.2
					c0.5,2.1,1.2,3.7,2.1,4.4l25.2-9C175.9,341.6,174.3,336,173.4,333.2z"/>
				<path class="st6" d="M154.7,315.6c7.4,6.9,4.8,26,4.8,26s3.6-2.2,8.5-5.2c-0.5,5.9-2.1,11.3-3.6,15.1l-13.9,5
					C144.6,351.6,147.3,308.7,154.7,315.6z"/>
				<path class="st7" d="M154.1,315.1c2.4,7.2,4.5,21.8-2,40.7l-1.7,0.6C144.8,351.8,147.2,311,154.1,315.1z"/>
				<g>
					<path class="st8" d="M182.4,329.3c0.9,2.6,4.4,3.7,7.8,2.5c3.4-1.2,5.4-4.3,4.4-6.9c-0.4-1.2-1.4-2.1-2.7-2.6
						c-2.4,1.3-5.9,3.3-9.7,5.5C182.2,328.4,182.3,328.8,182.4,329.3z"/>
					<g>
						<g>
							<path class="st9" d="M189.8,328c-0.1,0-0.2,0-0.2,0c-1.1,0-1.1,1.6,0,1.6c0.1,0,0.2,0,0.2,0C190.8,329.7,190.8,328,189.8,328
								L189.8,328z"/>
						</g>
						<g>
							<path class="st9" d="M192,325.5c1.1,0,1.1-1.6,0-1.6C190.9,323.8,190.9,325.5,192,325.5L192,325.5z"/>
						</g>
						<g>
							<path class="st9" d="M184.6,329.4c1.1,0,1.1-1.6,0-1.6C183.5,327.8,183.5,329.4,184.6,329.4L184.6,329.4z"/>
						</g>
					</g>
				</g>
				<path class="st10" d="M204.1,332.8c-0.8-0.6-51.8,19.7-51.8,19.7s-1.5,0.9-3.1,2.2c0.4,0.8,0.8,1.4,1.2,1.8l57-20.3
					C206.6,335.1,205.6,334,204.1,332.8z"/>
			</g>
			<g>
				<path class="st4" d="M316.7,324.5c2.1,0.2,35.5,20.7,35.5,20.7s-2.7-19.1,4.8-26c7.4-6.9,10.1,36.1,4.2,40.8l-62.6-22.3
					C298.7,337.8,311.9,324,316.7,324.5z"/>
				<path class="st6" d="M357,319.2c-7.4,6.9-4.8,26-4.8,26s-3.6-2.2-8.5-5.2c0.5,5.9,2.1,11.3,3.6,15.1l13.9,5
					C367.1,355.3,364.4,312.3,357,319.2z"/>
				<path class="st7" d="M357.6,318.8c-2.4,7.2-4.5,21.8,2,40.7l1.7,0.6C366.9,355.4,364.6,314.6,357.6,318.8z"/>
				<path class="st5" d="M348.2,342.7c-4-2.4-10.3-6.2-16.3-9.8c-1.7,3.4-4.1,9.8-2.1,15.9l21.1,7.5L348.2,342.7z"/>
				<g>
					<path class="st8" d="M329.9,334.4c-0.9,2.6-4.4,3.7-7.8,2.5c-3.4-1.2-5.4-4.3-4.4-6.9c0.4-1.2,1.4-2.1,2.7-2.6
						c2.4,1.3,5.9,3.3,9.7,5.5C330.1,333.4,330,333.9,329.9,334.4z"/>
					<g>
						<g>
							<path class="st9" d="M322.5,333.1c0.1,0,0.2,0,0.2,0c1.1,0,1.1,1.6,0,1.6c-0.1,0-0.2,0-0.2,0
								C321.5,334.7,321.5,333.1,322.5,333.1L322.5,333.1z"/>
						</g>
						<g>
							<path class="st9" d="M320.3,330.5c-1.1,0-1.1-1.6,0-1.6C321.4,328.9,321.4,330.5,320.3,330.5L320.3,330.5z"/>
						</g>
						<g>
							<path class="st9" d="M327.7,334.5c-1.1,0-1.1-1.6,0-1.6C328.8,332.8,328.8,334.5,327.7,334.5L327.7,334.5z"/>
						</g>
					</g>
				</g>
				<path class="st10" d="M361.2,360c0.7-0.5,1.2-1.6,1.7-3c-1.7-0.6-3.6-0.8-3.6-0.8l-52.7-18.8c-1.7,0.1-2.7,0.9-3.4,1.9
					L361.2,360z"/>
			</g>
			<path class="st4" d="M217,265c-4.2,15.9-12.1,39.8-29.3,46.2c-1.2,0.4-2.1,1.2-2.7,2c-1.7-0.1-17.5,3.3-20.4,17.8
				c0,0,0.2,3.5,3,3.7c2.7,0.2,8.4-10.1,10.4-10.6c2-0.5-1.5,3.5,0.5,4.9c1.1,0.8,7.4-2.8,10.2-6.9c0.6,0,1.2-0.1,1.9-0.4
				c21.5-7.9,31.5-33.3,36.9-53.8C229.3,261.1,218.8,258.2,217,265z"/>
			<path class="st8" d="M217,265c-4.2,15.9-12.1,39.8-29.3,46.2c-1.2,0.4-2.1,1.2-2.7,2c-1.7-0.1-17.5,3.3-20.4,17.8
				c0,0,0.2,3.5,3,3.7c2.7,0.2,8.4-10.1,10.4-10.6c2-0.5-1.5,3.5,0.5,4.9c1.1,0.8,7.4-2.8,10.2-6.9c0.6,0,1.2-0.1,1.9-0.4
				c21.5-7.9,31.5-33.3,36.9-53.8C229.3,261.1,218.8,258.2,217,265z"/>
			<path class="st4" d="M224.5,264.6c0.3-1.1,0.3-2.1,0-2.9c-2.8-1.3-6.5-0.5-7.6,3.3c-4.2,15.9-12.1,39.8-29.3,46.2
				c-1.2,0.4-2.1,1.2-2.7,2c-1.7-0.1-17.5,3.3-20.4,17.8c0,0,0,0.2,0.1,0.4c2.6,0.1,5.3-5,6.6-6.7c0.8-1.1,1.8-2.9,3-3.6
				c2.2-1.2,4.6,3.3,4,5c-0.1,0.2-0.2,0.5,0,0.7c0.1,0.1,0.2,0.1,0.3,0.1c0.9,0.1,1.7-0.3,2.4-0.8c2.2-1.5,4-3.3,5.2-5.7
				c1.1-2.3,2.5-2.3,4.8-3.4c4.1-2,7.9-4.7,11.2-7.9c6.8-6.6,11.6-15,15.3-23.6C220.4,278.7,222.7,271.7,224.5,264.6z"/>
			<path class="st4" d="M194.6,206.7c0,0-11.3-2.2-9.4,10.6c1.9,12.8,21,11.9,21,11.9L194.6,206.7z"/>
			<path class="st8" d="M194.6,206.7c0,0-0.2,0-0.6-0.1c-2.4,1.2-4.5,3.9-3.6,10c1.2,8.2,9.4,10.8,15.2,11.6L194.6,206.7z"/>
			<path class="st4" d="M294.2,206.9c0,0,11.3-2.2,9.4,10.6c-1.9,12.8-21,11.9-21,11.9L294.2,206.9z"/>
			<path class="st8" d="M294.2,206.9L284,226.6c5.7-0.9,13.2-3.6,14.4-11.4c0.6-4.2-0.2-6.8-1.6-8.4
				C295.3,206.6,294.2,206.9,294.2,206.9z"/>
			<path class="st7" d="M225.7,254.7c0,0-6.8-1.3-15.7,16.1l17.8,9.3C227.8,280.1,230.4,255.1,225.7,254.7z"/>
			<path class="st6" d="M211.8,267.5l9.8,5.1c0,0,1-9.6,0.6-17C219.8,256.9,216.1,260,211.8,267.5z"/>
			<g>
				<path class="st4" d="M275.1,265.6c4.3,12.3,14.6,26.8,28,30.2c7.1,1.8,12.6-2.5,16.9-7.7c5.4-6.5,4.7-13.9,7.1-21.5
					c1.8-5.7-7.2-8.2-8.9-2.5c-1.6,5-1,10.9-3.5,15.6c-1.1,2-2.7,3.8-4.4,5.3c-2.5,2.3-4.7,2.2-7.6,0.7
					c-8.8-4.5-15.4-13.4-18.6-22.5C282.1,257.5,273.1,259.9,275.1,265.6L275.1,265.6z"/>
				<path class="st8" d="M322.1,261c-0.1,2.6-1.3,4.1-1.3,4.1s3.7-3.7,3.2,3.2c-0.5,6.9-6.7,25.1-17.6,24.8
					c-11-0.3-21.9-16.6-21.9-16.6l4.7-3.2c-0.8-1.2-1.6-2.5-2.3-3.8c-3-0.9-7.3-1-10.6-0.8c2.5,5.9,6.2,12,10.9,16.9
					c1,0.9,1.9,1.9,2.9,2.8c3.9,3.4,8.2,6,13,7.2c7.1,1.8,12.6-2.5,16.9-7.7c5.4-6.5,4.7-13.9,7.1-21.5
					C328.3,263,325,260.7,322.1,261z"/>
			</g>
			<path class="st7" d="M277.4,275.4l14-5.9c0,0-5-16.5-18.8-17.8C258.7,250.4,277.4,275.4,277.4,275.4z"/>
			<path class="st6" d="M274.8,252.1c1.3,7.3,5.8,18.6,5.8,18.6l9.8-3.6C288.6,262.8,283.8,254.1,274.8,252.1z"/>
			<path class="st6" d="M224.6,253.4c9-2.2,26.7-15,47.9-1.7c0,0,6.9,37.7,11.2,43.7c4.2,6.1,42.4,30.3,42.4,30.3
				s-14.5,1.8-21.8,11.5c-7.9,10.6-31.8,11.2-43.4,11.9c-17.8,1.1-44.3,0.9-56.5-14.5c-2.5-3.1-4.3-6.7-7-9.5
				c-2.6-2.8-6.3-4.8-10.2-4.3c7.1-2.6,13.5-7.2,19.7-11.5c4.7-3.2,13.3-7.9,15.1-13.8C224.4,287.5,224.6,253.4,224.6,253.4z"/>
			<path class="st8" d="M195,320.9c-0.5,0.1-2.5,1.1-5.4,2.7c3.2,0.2,6.1,2,8.3,4.3c2.6,2.8,4.4,6.2,6.7,9.2l8.4-3
				C213.1,334.1,199.8,320.3,195,320.9z"/>
			<path class="st8" d="M324.9,328.8c-4.3-2.5-7.5-4.2-8.2-4.3c-4.8-0.5-18,13.3-18,13.3l6.2,2.2
				C310.6,332.4,320.8,329.6,324.9,328.8z"/>
			<path class="st6" d="M224.6,253.4c9-2.2,26.7-15,47.9-1.7c0,0,6.9,37.7,11.2,43.7c4.2,6.1,42.4,30.3,42.4,30.3
				s-14.5,1.8-21.8,11.5c-7.9,10.6-31.8,11.2-43.4,11.9c-17.8,1.1-44.3,0.9-56.5-14.5c-2.5-3.1-4.3-6.7-7-9.5
				c-2.6-2.8-6.3-4.8-10.2-4.3c7.1-2.6,13.5-7.2,19.7-11.5c4.7-3.2,13.3-7.9,15.1-13.8C224.4,287.5,224.6,253.4,224.6,253.4z"/>
			<path class="st7" d="M241.4,247.6c0,0-14.2,9.4-4.2,14.7c10,5.2,11.3-5.8,11.3-5.8s5,10.2,11,6.3c6-3.9,4.7-11-5.2-15.2
				S241.4,247.6,241.4,247.6z"/>
			<path class="st11" d="M241.4,245.6c0,0-14.2,9.4-4.2,14.7c10,5.2,11.3-5.8,11.3-5.8s5,10.2,11,6.3c6-3.9,4.7-11-5.2-15.2
				S241.4,245.6,241.4,245.6z"/>
			<path class="st4" d="M240.4,238c0,1.8,0,12.1,4.1,15.1c4.1,3,10.2,3,10.5-14.5C255.5,221,240.4,238,240.4,238z"/>
			<path class="st8" d="M243,244.2c0.5-1.9,5.6,0.8,8-0.5c2-1.1,2.7,4.1,1.8,7.8c1.3-2.4,2.1-6.5,2.3-12.8c0-0.9,0-1.6-0.1-2.3
				l-14.6,4.1c0.2,3.7,0.9,10.4,4.1,12.8C244.5,253.1,242.5,246.1,243,244.2z"/>
			<path class="st12" d="M200.1,176.1c-5.8,11.2-12.9,33.7-0.5,50.6c14.5,19.8,72.7,19.7,88.5,0.6c15.8-19.1,6.4-58.4-14.1-65.6
				C253.6,154.3,211.5,154.1,200.1,176.1z"/>
			<path class="st4" d="M274,161.5c-20.5-7.3-62.5-7.4-73.9,14.5c-2.6,5-5.4,12.3-6.7,20.3c-0.5,8.4,1.2,17.2,6.7,24.8
				c14.5,19.8,72.7,19.7,88.5,0.6c3.9-4.7,6.3-10.7,7.3-17C296.9,186.5,288,166.5,274,161.5z"/>
			<path class="st13" d="M216.9,202.4c-1.2,1.5-2.2,3-3,4.6c-3.4,6.4-5.8,15.7,2,19.9c11.9,6.5,19.4-5.5,33.1-3.1
				c13.6,2.4,17.4,11.3,28.7,1.7c11.3-9.6-3.1-36.5-28.7-35.8c-3.8,0.1-7.8-0.7-11.5,0c-2.7,0.5-5.5,1.6-8,2.7
				C224.3,194.7,220.3,198.2,216.9,202.4z"/>
			<path class="st14" d="M248.5,202.8c-0.4,0.4-0.5,1-0.5,1.6c0.1,2,1.4,3.8,1.7,5.7c0.5,2.4-0.8,5.2-3.1,6.1
				c-2.3,0.9-5.4-0.7-5.6-3.2c-0.1-0.9,0.2-1.9,0.9-2.6c0.3-0.3,0.6-0.5,0.8-0.9c0.2-0.3,0.4-0.7,0.4-1.1c0.5-2.4-1.6-5-4-5.1
				c-3.9-0.2-8.2,1.3-11.3,3.4c-2.3,1.6-3.2,3.9-5.1,5.8c-0.6,0.7-6.7,9.3-4.5,15.4c10.5,3.7,17.9-6.4,30.6-4.2
				c11.6,2,16.1,8.8,24.1,4.8c3-5.4-0.1-12.3-3.7-16.7c-2.4-2.9-5.5-5.3-8.9-6.9c-2.8-1.3-7.9-3.3-10.9-2.7
				c-0.3,0.1-0.6,0.1-0.8,0.3C248.6,202.7,248.6,202.8,248.5,202.8z"/>
			<path class="st14" d="M224.1,228.9c7.8-0.5,14.6-6.8,24.8-5c10.8,1.9,15.4,7.8,22.4,5.5c-3.3-9-11.7-15.6-21.7-16.4
				c-0.5,1.5-1.5,2.8-3,3.3c-2.1,0.8-4.9-0.5-5.5-2.6C233.4,215.7,227,221.4,224.1,228.9z"/>
			<path class="st11" d="M249.3,190.4c0,0-1.1,7,4.3,6.6c3.9-0.3,3.8-4.3,3.4-6.5c-2.3-0.5-4.8-0.8-7.4-0.8
				C249.5,189.9,249.4,190.2,249.3,190.4z"/>
			
				<ellipse transform="matrix(0.2671 -0.9637 0.9637 0.2671 19.5401 404.6558)" class="st8" cx="275.8" cy="189.5" rx="7.2" ry="11.5"/>
			<path class="st8" d="M225.3,187.3c1.6,3.7-1.9,8.7-7.7,11.2c-5.8,2.5-11.9,1.5-13.4-2.1c-1.6-3.7,1.9-8.7,7.7-11.2
				C217.7,182.7,223.7,183.6,225.3,187.3z"/>
			<g>
				<g>
					<path class="st9" d="M216.8,194.3c1.9,0,1.9-3,0-3C214.9,191.3,214.9,194.3,216.8,194.3L216.8,194.3z"/>
				</g>
			</g>
			<g>
				<g>
					<path class="st9" d="M219.8,188.9c1.9,0,1.9-3,0-3C217.8,185.9,217.8,188.9,219.8,188.9L219.8,188.9z"/>
				</g>
			</g>
			<g>
				<g>
					<path class="st9" d="M222.5,192.5c1.9,0,1.9-3,0-3C220.5,189.5,220.5,192.5,222.5,192.5L222.5,192.5z"/>
				</g>
			</g>
			<g>
				<g>
					<path class="st9" d="M209,194.3c1.9,0,1.9-3,0-3C207.1,191.3,207.1,194.3,209,194.3L209,194.3z"/>
				</g>
			</g>
			<g>
				<g>
					<path class="st9" d="M268.7,188.7c0.1-0.1,0.2-0.2,0.3-0.3c0.6-0.6,0.6-1.5,0-2.1c-0.6-0.6-1.5-0.6-2.1,0
						c-0.1,0.1-0.2,0.2-0.3,0.3c-0.6,0.6-0.6,1.5,0,2.1C267.2,189.3,268.2,189.3,268.7,188.7L268.7,188.7z"/>
				</g>
			</g>
			<g>
				<g>
					<path class="st9" d="M274.9,186.5c1.9,0,1.9-3,0-3C272.9,183.5,272.9,186.5,274.9,186.5L274.9,186.5z"/>
				</g>
			</g>
			<g>
				<g>
					<path class="st9" d="M273.4,193.7c1.9,0,1.9-3,0-3C271.4,190.7,271.4,193.7,273.4,193.7L273.4,193.7z"/>
				</g>
			</g>
			<g>
				<g>
					<path class="st9" d="M282,191c1.9,0,1.9-3,0-3C280.1,188,280.1,191,282,191L282,191z"/>
				</g>
			</g>
			<g>
				<g>
					<path class="st9" d="M213.4,198.3c1.9,0,1.9-3,0-3C211.5,195.3,211.4,198.3,213.4,198.3L213.4,198.3z"/>
				</g>
			</g>
			<g>
				<g>
					<path class="st9" d="M211.2,189.1c1.9,0,1.9-3,0-3C209.2,186.1,209.2,189.1,211.2,189.1L211.2,189.1z"/>
				</g>
			</g>
			<g>
				<g>
					<path class="st9" d="M240.9,231.4c0,0.1,2.9-0.3,3.4-0.3c1.4,0,2.6,0.4,3.9,0.8c1.8,0.7,2.6-2.2,0.8-2.9
						c-2.8-1.1-10.8-2.3-11.1,2.3C237.8,233.3,240.8,233.3,240.9,231.4L240.9,231.4z"/>
				</g>
			</g>
			<g>
				<g>
					<path class="st9" d="M243.7,181.7c0.8-1.8,2-4.8,4.5-4.4c2.8,0.4,2.9,4.1,0.4,5c-1.8,0.7-1,3.6,0.8,2.9
						c4.1-1.5,5.6-7.1,1.7-9.8c-1.7-1.2-3.9-1.5-5.7-0.6c-2.2,1.1-3.4,3.3-4.3,5.4C240.4,181.9,243,183.5,243.7,181.7L243.7,181.7z"
						/>
				</g>
			</g>
			<g>
				<path class="st13" d="M210.4,184.4c3.1-3.1,8.9-8.4,12.9-3.4c1.3,1.6,3.6-0.7,2.3-2.3c-5.2-6.5-13.2-1-17.6,3.4
					C206.6,183.5,208.9,185.9,210.4,184.4L210.4,184.4z"/>
			</g>
			<g>
				<path class="st13" d="M279.9,183.4c-3.1-3.1-8.9-8.4-12.9-3.4c-1.3,1.6-3.6-0.7-2.3-2.3c5.2-6.5,13.2-1,17.6,3.4
					C283.7,182.5,281.3,184.9,279.9,183.4L279.9,183.4z"/>
			</g>
			<g>
				<g>
					<path class="st9" d="M244,186.4c0.2-0.2,0.5-0.3,0.7-0.5c0.7-0.5,1-1.3,0.5-2.1c-0.4-0.7-1.4-1-2.1-0.5
						c-0.2,0.2-0.5,0.3-0.7,0.5c-0.7,0.5-1,1.3-0.5,2.1C242.3,186.5,243.3,186.8,244,186.4L244,186.4z"/>
				</g>
			</g>
			<g>
				<g>
					<path class="st9" d="M220.8,173.1c1.3,0.5,2.4,1.4,3.2,2.5c0.6,0.9,2,0,1.4-0.8c-0.9-1.4-2.2-2.5-3.7-3.1
						C220.6,171.3,219.8,172.7,220.8,173.1L220.8,173.1z"/>
				</g>
				<g>
					<path class="st9" d="M223.6,169.5c0.3,0.5,0.7,1.1,1,1.6c0.5,0.9,2,0.1,1.4-0.8c-0.3-0.5-0.7-1.1-1-1.6
						C224.4,167.7,223,168.6,223.6,169.5L223.6,169.5z"/>
				</g>
				<g>
					<path class="st9" d="M265,176.3c-0.3-1.3,0.8-2.5,2.1-2.5c1.1,0,1.1-1.6,0-1.6c-2.4,0-4.2,2.3-3.7,4.6
						C263.7,177.7,265.2,177.3,265,176.3L265,176.3z"/>
				</g>
				<g>
					<path class="st9" d="M264.9,170.7c0.2-0.2,0.4-0.3,0.7-0.3c1,0.2,1.5-1.4,0.4-1.6c-1-0.2-1.9,0.2-2.5,1
						C262.9,170.8,264.3,171.6,264.9,170.7L264.9,170.7z"/>
				</g>
				<g>
					<path class="st9" d="M223.4,184.1c0.6,0.2,1.3,0.4,1.9,0.6c1,0.3,1.4-1.3,0.4-1.6c-0.6-0.2-1.3-0.4-1.9-0.6
						C222.9,182.2,222.4,183.8,223.4,184.1L223.4,184.1z"/>
				</g>
				<g>
					<path class="st9" d="M267.2,183.1c0.6-0.4,1.3-0.6,2-0.7c0.4-0.1,0.7-0.6,0.6-1c-0.1-0.5-0.6-0.6-1-0.6
						c-0.9,0.1-1.7,0.4-2.4,0.8C265.5,182.2,266.3,183.6,267.2,183.1L267.2,183.1z"/>
				</g>
			</g>
			<path class="st8" d="M239.6,186.2c0,0,0.6-2.6,3.7-3.7c3.1-1.1,6-1.7,7.1-4c1.1-2.3,4,3.4,1.7,4.8s4.5,1.7,3.4,2.8
				C254.4,187.3,244.5,189.9,239.6,186.2z"/>
			<g>
				<path class="st11" d="M247.5,179.6c0-0.1,0-0.2,0-0.3c0-1.1-1.6-1.1-1.6,0c0,0.1,0,0.2,0,0.3
					C245.9,180.6,247.5,180.6,247.5,179.6L247.5,179.6z"/>
			</g>
			<path class="st15" d="M248.9,223.9c4.5,0.8,7.9,2.3,10.9,3.6c-0.5-4.7-3.2-6.3-12-7.9c-9-1.7-13,5.3-13,5.3
				c-0.1,0.3-0.1,0.7-0.1,1C238.8,224.3,243.4,222.9,248.9,223.9z"/>
			<path class="st11" d="M232.4,221.1c-4.9,1.2-1.4,6.1-1.4,6.1l0.3,0c2-0.7,4-1.5,6.1-2.2C237,223.1,235.8,220.3,232.4,221.1z"/>
			<g>
				<g>
					<path class="st7" d="M251.5,274.4c0,0-8.4-10-2.1-10C259,264.4,251.5,274.4,251.5,274.4z"/>
					<path class="st7" d="M251.4,281.8c0,0-5.8,11.7,0.3,10.2C261.1,289.8,251.4,281.8,251.4,281.8z"/>
				</g>
				<g>
					<path class="st7" d="M248.8,275.5c0,0-13-1.2-8.6-5.6C247,263.1,248.8,275.5,248.8,275.5z"/>
					<path class="st7" d="M253.9,280.7c0,0,4.2,12.4,7.4,7C266.4,279.6,253.9,280.7,253.9,280.7z"/>
				</g>
				<g>
					<path class="st7" d="M247.3,277.9c0,0-10,8.4-10,2.1C237.3,270.4,247.3,277.9,247.3,277.9z"/>
					<path class="st7" d="M254.6,278c0,0,11.7,5.8,10.2-0.3C262.6,268.3,254.6,278,254.6,278z"/>
				</g>
				<g>
					<path class="st7" d="M248.4,280.6c0,0-1.2,13-5.6,8.6C236,282.4,248.4,280.6,248.4,280.6z"/>
					<path class="st7" d="M253.6,275.5c0,0,12.4-4.2,7-7.4C252.4,263,253.6,275.5,253.6,275.5z"/>
				</g>
				<path class="st5" d="M255.2,278.1c0,2-1.6,3.7-3.7,3.7c-2,0-3.7-1.6-3.7-3.7c0-2,1.6-3.7,3.7-3.7
					C253.5,274.4,255.2,276.1,255.2,278.1z"/>
			</g>
			<g>
				<g>
					<g>
						<polygon class="st16" points="328.5,274.6 315.7,235.3 338.3,234.9 						"/>
						<g>
							<path class="st17" d="M332.4,258.5c-0.2,0.1-0.3,0.3-0.5,0.4c0.1,0,0.2,0,0.4,0L332.4,258.5z"/>
							<path class="st17" d="M329.7,264.9c-1.1,1-2.2,2-3.4,3l1,3c0.7,0,1.4,0,2.1,0l0.4-1.6c-0.8,0-1.7,0-2.5,0c1.1-1,2.2-2,3.2-3
								l0.8-3.1c-1.4,0-2.7,0-4.1,0c-0.6,0.5-1.2,1.1-1.8,1.6C326.8,264.9,328.2,264.9,329.7,264.9z"/>
							<path class="st17" d="M333.1,255.7c-0.6,0.5-1.2,1.1-1.8,1.6c0.5,0,0.9,0,1.4,0L333.1,255.7z"/>
							<path class="st17" d="M325.3,265C325.4,265,325.4,264.9,325.3,265C325.4,264.9,325.3,264.9,325.3,265L325.3,265z"/>
							<path class="st17" d="M338.3,234.9l-1.9,0c-1.5,1.4-3.1,2.9-4.9,4.5c-2.5,0-5.1,0-7.6,0c1.6-1.6,3.1-3.2,4.3-4.4l-2.4,0
								c-1.1,1.1-2.7,2.7-4.3,4.3c-1.5,0-3.1,0-4.6,0l0.5,1.6c0.8,0,1.6,0,2.5,0c-0.7,0.7-1.3,1.3-1.8,1.9l0.6,1.7
								c1-1,2.2-2.3,3.6-3.6c2.5,0,5,0,7.5,0c-1.6,1.5-3.2,3-4.8,4.4c-2,0-4,0-6,0l0.5,1.6c1.2,0,2.5,0,3.7,0c-1,0.9-2,1.8-2.9,2.6
								l0.6,1.7c1.4-1.3,3.1-2.7,4.9-4.3c2.2,0,4.4,0,6.6,0c-2,1.7-4.1,3.5-6.1,5.2c-1.7,0-3.4,0-5.1,0l0.5,1.6c0.9,0,1.8,0,2.7,0
								c-0.7,0.6-1.4,1.2-2.1,1.8l1,3.1c2.1,0,4.1,0,6.2,0c0.6-0.5,1.2-1.1,1.8-1.6c-2.7,0-5.5,0-8.2,0c1.2-1.1,2.5-2.2,3.7-3.3
								c2.2,0,4.4,0,6.7,0l0.4-1.6c-1.7,0-3.5,0-5.2,0c2-1.8,4.1-3.5,6.1-5.2c0.1,0,0.2,0,0.4,0l0.8-3.1c-0.6,0.5-1.1,1-1.7,1.4
								c-2.2,0-4.4,0-6.6,0c1.7-1.4,3.4-2.9,5-4.4c1.4,0,2.7,0,4.1,0l0.4-1.6c-0.9,0-1.7,0-2.6,0c1.2-1,2.3-2,3.3-3L338.3,234.9z"/>
							<path class="st17" d="M324.8,263.3c0.8,0,1.6,0,2.4,0c1.6-1.5,3.2-2.9,4.8-4.4c-0.8,0-1.6,0-2.4,0
								C327.9,260.4,326.3,261.8,324.8,263.3L324.8,263.3z"/>
						</g>
						<g>
							<path class="st5" d="M324.3,261.8l0.6,1.7c2.7-2.5,5.5-5,8.2-7.5l0.7-2.8C330.6,256,327.4,258.8,324.3,261.8z"/>
							<path class="st5" d="M326.4,268.1c1.6-1.5,3.2-2.9,4.8-4.3l0.7-2.8c-2,1.8-4,3.6-6,5.4L326.4,268.1z"/>
							<path class="st5" d="M319.9,248.2l0.6,1.7c5.6-4.9,11.1-9.9,16.5-14.9l-2.5,0C329.6,239.4,324.8,243.8,319.9,248.2z"/>
							<path class="st5" d="M321.8,254.3l0.6,1.7c4.4-4,9-7.9,13.6-11.7l0.7-2.7C331.6,245.7,326.7,250,321.8,254.3z"/>
							<path class="st5" d="M317.7,241.5l0.6,1.7c2.7-2.7,5.4-5.4,8.1-8.1l-2.4,0C321.9,237.3,319.8,239.4,317.7,241.5z"/>
							<g>
								<path class="st5" d="M334.4,250.6c-4.6,0-9.1,0-13.7,0l0.5,1.6c4.3,0,8.5,0,12.8,0L334.4,250.6z"/>
								<path class="st5" d="M317,239.4c6.7,0,13.4,0,20.2,0l0.4-1.6c-7,0-14.1,0-21.1,0L317,239.4z"/>
								<path class="st5" d="M333.2,255.6c-3.6,0-7.3,0-10.9,0l0.5,1.6c3.3,0,6.6,0,10,0L333.2,255.6z"/>
								<path class="st5" d="M330.2,267.6c-1.3,0-2.7,0-4,0l0.5,1.6c1,0,2,0,3.1,0L330.2,267.6z"/>
								<path class="st5" d="M324.2,261.6l0.5,1.6c2.2,0,4.3,0,6.5,0l0.4-1.6C329.2,261.6,326.7,261.6,324.2,261.6z"/>
								<path class="st5" d="M318.4,243.8l0.5,1.6c5.6,0,11.1,0,16.7,0l0.4-1.6C330.2,243.8,324.3,243.8,318.4,243.8z"/>
							</g>
						</g>
					</g>
					<polygon class="st17" points="328.1,273.6 328.5,274.6 338.3,234.9 328.1,235.1 					"/>
				</g>
				<polygon class="st17" points="338.2,235.3 315.9,235.3 315.7,235.3 316.6,238.1 337.5,238.1 				"/>
				<rect x="313.7" y="234.1" class="st16" width="26.5" height="2.8"/>
			</g>
			<path class="st4" d="M335.2,245.9c-0.3-0.5-8.7,1.8-9.4,2.5c-3,3.5,2.6,8.1,2.6,11.9c0,1.3-0.4,2.6,0.3,3.7
				c0.6,1.1,2,1.4,3.2,1.2C342.3,262.9,339.9,252.6,335.2,245.9z"/>
			<path class="st4" d="M316.2,264.6c0,0-8.6-15.5,4-19.9c12.6-4.4,8.8,6.5,3.1,9C323.3,253.7,330.1,274.4,316.2,264.6z"/>
			<path class="st8" d="M274,161.5c-20.5-7.3-62.5-7.4-73.9,14.5c-2.6,5-5.4,12.3-6.7,20.3c-0.3,5.7,0.3,11.6,2.5,17.2
				c1.8,1.1,4,1.5,5.5,0.1l0,0c0.2-0.2,0.4-0.4,0.6-0.7c0.1-0.1,0.1-0.2,0.2-0.3c0.1-0.1,0.1-0.2,0.2-0.3c0.1-0.2,0.2-0.5,0.4-0.8
				c0.1-0.3,0.2-0.6,0.2-0.8c0-0.1,0-0.2,0.1-0.3c0-0.1,0-0.3,0.1-0.4c0-0.2,0.1-0.5,0.1-0.7l0,0l0,0c0.1-3.4-3.5-3.4-3.5-3.4
				c0.6,1.4,0.8,2.4,0.7,3.1c-0.1,1.1-0.8,1.5-1.7,1.4c0,0,0,0-0.1,0c-0.1,0-0.2,0-0.3,0c-0.1,0-0.1,0-0.2,0c-0.1,0-0.2-0.1-0.4-0.1
				c-0.1,0-0.2-0.1-0.3-0.1c-0.1,0-0.1-0.1-0.2-0.1c-0.1-0.1-0.3-0.1-0.4-0.2c0,0-0.1-0.1-0.1-0.1c-0.1-0.1-0.3-0.2-0.4-0.3
				c0,0-0.1-0.1-0.1-0.1c-0.1-0.1-0.3-0.2-0.4-0.4c0,0,0,0,0,0l0,0c-0.3-0.3-0.5-0.6-0.7-1c-0.1-0.1-0.1-0.3-0.2-0.5
				c-0.4-1.6-0.1-5.3,0.7-9.8c0,0,0-0.1,0-0.1c0.1-0.3,0.1-0.6,0.2-0.9c0-0.1,0-0.2,0.1-0.3c0-0.3,0.1-0.5,0.2-0.8
				c0-0.2,0.1-0.3,0.1-0.5c0-0.2,0.1-0.5,0.2-0.7c0-0.2,0.1-0.4,0.1-0.5c0-0.2,0.1-0.4,0.2-0.7c0-0.2,0.1-0.4,0.1-0.6
				c0.1-0.2,0.1-0.4,0.2-0.6c0.1-0.2,0.1-0.4,0.2-0.6c0.1-0.2,0.1-0.4,0.2-0.6c0.1-0.2,0.1-0.4,0.2-0.7c0.1-0.2,0.1-0.4,0.2-0.6
				c0.1-0.2,0.1-0.5,0.2-0.7c0.1-0.2,0.1-0.4,0.2-0.6c0.1-0.2,0.1-0.5,0.2-0.7c0.1-0.2,0.1-0.4,0.2-0.6c0.1-0.2,0.2-0.5,0.2-0.7
				c0.1-0.2,0.1-0.4,0.2-0.6c0.1-0.2,0.2-0.5,0.2-0.7c0.1-0.2,0.1-0.4,0.2-0.5c0.1-0.2,0.2-0.5,0.3-0.7c0.1-0.2,0.1-0.4,0.2-0.5
				c0.1-0.2,0.2-0.5,0.3-0.7c0.1-0.2,0.1-0.3,0.2-0.5c0.1-0.2,0.2-0.4,0.3-0.7c0.1-0.2,0.1-0.3,0.2-0.5c0.1-0.2,0.2-0.4,0.3-0.6
				c0.1-0.2,0.2-0.3,0.2-0.5c0.1-0.2,0.2-0.4,0.3-0.6c0.1-0.2,0.2-0.3,0.2-0.5c0.1-0.2,0.2-0.4,0.3-0.6c0.1-0.1,0.2-0.3,0.2-0.4
				c0.1-0.2,0.2-0.4,0.4-0.6c0.1-0.1,0.2-0.3,0.2-0.4c0.1-0.2,0.3-0.4,0.4-0.6c0.1-0.1,0.1-0.2,0.2-0.3c0.2-0.3,0.4-0.6,0.6-0.8
				c0,0,0,0,0,0c1.3-1.7,3-3.2,5-4.5c1-0.7,2-1.3,3-1.9c1.4-0.8,2.8-1.5,4.2-2.1c0.7-0.3,1.4-0.6,2.1-0.9c3.5-1.4,6.7-2.3,8.8-2.9
				c0.5,0.7,1.1,1.5,2,2.4l2-3.1c0,0,7.1,11,19.3,10.8c0,0-3.4-3.4-2-6.8l4.5,3.4c0,0,0.8-5.4,2.3-6.5c1.4-1.1,1.1,3.7,1.1,3.7
				s4.3-3.4,5.4-6c1.4,0.3,4,1,7,2.1c4.2,1.5,9.4,3.7,13.4,6.7c1.5,1.2,2.9,2.4,4,3.8c0.2,0.3,0.4,0.6,0.6,0.8
				c0.1,0.1,0.1,0.2,0.2,0.3c0.1,0.2,0.3,0.4,0.4,0.6c0.1,0.1,0.2,0.3,0.2,0.4c0.1,0.2,0.2,0.4,0.4,0.6c0.1,0.1,0.2,0.3,0.2,0.4
				c0.1,0.2,0.2,0.4,0.3,0.6c0.1,0.2,0.2,0.3,0.2,0.5c0.1,0.2,0.2,0.4,0.3,0.6c0.1,0.2,0.2,0.3,0.2,0.5c0.1,0.2,0.2,0.4,0.3,0.6
				c0.1,0.2,0.1,0.3,0.2,0.5c0.1,0.2,0.2,0.4,0.3,0.7c0.1,0.2,0.1,0.3,0.2,0.5c0.1,0.2,0.2,0.5,0.3,0.7c0.1,0.2,0.1,0.3,0.2,0.5
				c0.1,0.2,0.2,0.5,0.3,0.7c0.1,0.2,0.1,0.3,0.2,0.5c0.1,0.2,0.2,0.5,0.3,0.7c0.1,0.2,0.1,0.3,0.2,0.5c0.1,0.2,0.2,0.5,0.2,0.7
				c0.1,0.2,0.1,0.3,0.2,0.5c0.1,0.3,0.2,0.5,0.2,0.8c0,0.2,0.1,0.3,0.1,0.5c0.1,0.3,0.2,0.6,0.2,0.9c0,0.1,0.1,0.3,0.1,0.4
				c0.1,0.3,0.2,0.7,0.3,1c0,0.1,0,0.1,0.1,0.2c0.1,0.4,0.2,0.8,0.3,1.2c0,0.1,0.1,0.3,0.1,0.4c0.1,0.3,0.1,0.5,0.2,0.8
				c0,0.2,0.1,0.4,0.1,0.5c0.1,0.2,0.1,0.5,0.1,0.7c0,0.2,0.1,0.4,0.1,0.6c0,0.2,0.1,0.4,0.1,0.6c0,0.2,0.1,0.4,0.1,0.6
				c0,0.2,0.1,0.4,0.1,0.6c0,0.2,0.1,0.4,0.1,0.6c0,0.2,0.1,0.4,0.1,0.5c0,0.2,0.1,0.4,0.1,0.6c0,0.2,0.1,0.3,0.1,0.5
				c0,0.2,0.1,0.4,0.1,0.6c0,0.2,0,0.3,0.1,0.5c0,0.2,0.1,0.4,0.1,0.6c0,0.1,0,0.3,0,0.4c0,0.2,0,0.4,0.1,0.6c0,0.1,0,0.2,0,0.4
				c0,0.2,0,0.4,0.1,0.6c0,0.1,0,0.1,0,0.2c-0.4,1.2-0.9,2.4-1.5,3.6c-0.5,0.9,0.9,1.7,1.4,0.8c0,0,0-0.1,0.1-0.1
				c0,0.2-0.1,0.4-0.2,0.5c-0.2,0.4-0.5,0.8-0.9,1.1c-0.3,0.3-0.7,0.6-1,0.8c0,0,0,0,0,0c-0.4,0.2-0.7,0.4-1.1,0.5c0,0,0,0,0,0
				c-1.2,0.3-2.3-0.1-2.1-1.9c0.1-0.6,0.3-1.4,0.7-2.5c0,0-2.4,0-3.2,1.8v0c0,0,0,0.1,0,0.1c-0.1,0.1-0.1,0.3-0.1,0.4
				c0,0,0,0.1,0,0.1c0,0.2-0.1,0.3-0.1,0.5c0,0,0,0.1,0,0.1c0,0.2,0,0.4,0,0.6c0,0,0,0.1,0,0.1c0,0.2,0.1,0.5,0.1,0.7
				c0,0.1,0,0.1,0,0.2c0.1,0.3,0.1,0.6,0.3,0.9c0,0,0,0,0,0c0,0,0,0,0,0c0.1,0.3,0.2,0.5,0.3,0.8c1.4,2.7,3.9,2.6,6.1,1.4
				c0.8-2.3,1.4-4.7,1.8-7.2C296.9,186.5,288,166.5,274,161.5z"/>
			<g>
				<path class="st5" d="M230.2,152.8c-2.4,0.7-7.9,2.8-1.1,9.9l2-3.1c0,0,7.1,11,19.3,10.8c0,0-3.4-3.4-2-6.8l4.5,3.4
					c0,0,0.8-5.4,2.3-6.5c1.4-1.1,1.1,3.7,1.1,3.7s5.4-4.2,5.7-6.8C262.2,154.8,250.9,146.3,230.2,152.8z"/>
				<g>
					<g>
						<path class="st5" d="M288.9,161.7c-0.9-1-3.2-19.9,14.2-28.1l-0.9,4.7c0,0,11.4-7.3,24.6-5l-4.4,3.8c0,0,19.2,2.8,27.1,17
							l-5.7-0.9c0,0-11.4,7.3-17.7,9.8l10.4,0.6C336.5,163.5,306.3,180.6,288.9,161.7z"/>
						<path class="st16" d="M288.9,161.7c-0.9-1-3.2-19.9,14.2-28.1l-0.9,4.7c0,0,11.4-7.3,24.6-5l-4.4,3.8c0,0,19.2,2.8,27.1,17
							l-5.7-0.9c0,0-11.4,7.3-17.7,9.8l10.4,0.6C336.5,163.5,306.3,180.6,288.9,161.7z"/>
						<path class="st5" d="M326.5,133.5c-0.2-0.1-0.5-0.2-0.7-0.3c-12.9-1.7-23.7,5.2-23.7,5.2l0.9-4.7
							c-9.4,4.5-13.1,12.1-14.3,18.3c14.8,14.1,39,0.5,39,0.5l-8.8-0.5c5.3-2.1,14.9-8.2,14.9-8.2l4.8,0.8c-0.3-0.6-0.7-1.2-1.1-1.7
							c-7.6-4.4-15.3-5.6-15.3-5.6L326.5,133.5z"/>
						<path class="st6" d="M284.5,159.4c0,0,1.3-1.9,6.3,0.3c5,2.2,6.3,8.2,3.8,10.7C292.1,173,279.4,163.9,284.5,159.4z"/>
						<path class="st5" d="M290.5,201.9c0,0-5,0-3.1,5.6c2,5.6,8.1,2.2,9.8-1.1c1.7-3.4,3.6-4.2,3.4-13.7
							c-0.3-9.5-3.1-37.6-42.9-40.1l2.8,5.3c0,0,18.5,3.9,25.5,12.9c7,9,10.4,30.3,9,33.1S287.7,208.4,290.5,201.9z"/>
						<g>
							<path class="st16" d="M297.5,191.7c-0.3-8.9-2.9-34.9-39.2-37.9l2.2,4.2c0,0,18.5,3.9,25.5,12.9c6.5,8.4,9.9,27.5,9.2,32.3
								C296.5,200.9,297.7,199,297.5,191.7z"/>
							<path class="st16" d="M294.1,205.1c-1.7,1.6-4.6,2.2-4.3-0.6c-1.1,0.5-2.2,0.4-2.5-0.7c-0.4,0.8-0.5,2,0.1,3.8
								c0.1,0.4,0.3,0.7,0.5,1C290.2,208.9,292.9,207.1,294.1,205.1z"/>
						</g>
					</g>
					<g>
						<path class="st5" d="M201,163.5c0.9-1,3.2-19.9-14.2-28.1l0.9,4.7c0,0-11.4-7.3-24.6-5l4.4,3.8c0,0-19.2,2.8-27.1,17l5.7-0.9
							c0,0,11.4,7.3,17.7,9.8l-10.4,0.6C153.4,165.4,183.7,182.4,201,163.5z"/>
						<path class="st16" d="M201,163.5c0.9-1,3.2-19.9-14.2-28.1l0.9,4.7c0,0-11.4-7.3-24.6-5l4.4,3.8c0,0-19.2,2.8-27.1,17l5.7-0.9
							c0,0,11.4,7.3,17.7,9.8l-10.4,0.6C153.4,165.4,183.7,182.4,201,163.5z"/>
						<path class="st5" d="M186.8,135.4l0.9,4.7c0,0-11.4-7.3-24.6-5l4.4,3.8c0,0-11.3,1.7-20.1,8.9c3.9,2.3,9.6,5.6,13.4,7.1
							l-10.4,0.6c0,0,30.3,17,47.6-1.9c0.3-0.4,0.9-3.3,0.5-7.3C196.3,142.2,192.7,138.2,186.8,135.4z"/>
						<path class="st6" d="M205.5,161.3c0,0-1.3-1.9-6.3,0.3c-5,2.2-6.3,8.2-3.8,10.7C197.9,174.9,210.5,165.7,205.5,161.3z"/>
						<path class="st5" d="M199.4,203.8c0,0,5,0,3.1,5.6c-2,5.6-8.1,2.2-9.8-1.1c-1.7-3.4-3.6-4.2-3.4-13.7
							c0.3-9.5,3.1-37.6,42.9-40.1l-2.8,5.3c0,0-18.5,3.9-25.5,12.9c-7,9-10.4,30.3-9,33.1C196.4,208.6,202.2,210.2,199.4,203.8z"/>
						<g>
							<path class="st16" d="M192.7,193.8c-0.2,7.1,0.8,9.4,2.1,11.5c-0.9-4.2,2.4-24,9.1-32.6c7-9,25.5-12.9,25.5-12.9l2.8-5.3
								c-3.6,0.2-6.9,0.7-9.9,1.3C195.1,162.9,193,185.4,192.7,193.8z"/>
							<path class="st16" d="M203,207.2c-0.7,0.5-1.8,0.2-2.8-0.4c-0.2,2.2-2.9,1.5-4.5-0.1c0.1,0.2,0.3,0.5,0.4,0.8
								c0.9,1.8,3,3.5,5.1,4c0.5-0.5,1-1.2,1.3-2.1C202.8,208.5,202.9,207.8,203,207.2z"/>
						</g>
					</g>
					<g>
						<path class="st18" d="M291.7,159.1c2.4-7.5,6.5-15.3,14.9-16.8c1-0.2,0.6-1.8-0.4-1.6c-9,1.6-13.5,9.9-16.1,17.9
							C289.8,159.7,291.4,160.1,291.7,159.1L291.7,159.1z"/>
					</g>
					<g>
						<path class="st18" d="M295.6,162.2c5.5,0.2,10.9,0.1,16.4-0.3c1-0.1,1.1-1.7,0-1.6c-5.5,0.5-10.9,0.6-16.4,0.3
							C294.6,160.5,294.6,162.2,295.6,162.2L295.6,162.2z"/>
					</g>
					<g>
						<path class="st18" d="M298.1,156.8c5.2-5.9,12.2-9.2,20-9.4c1.1,0,1.1-1.7,0-1.6c-8.2,0.2-15.7,3.7-21.2,9.9
							C296.3,156.4,297.4,157.6,298.1,156.8L298.1,156.8z"/>
					</g>
					<g>
						<path class="st18" d="M325.9,143.7c5.1,0.3,9.8,2.2,13.8,5.5c0.8,0.7,2-0.5,1.2-1.2c-4.3-3.6-9.3-5.6-14.9-6
							C324.8,142,324.8,143.6,325.9,143.7L325.9,143.7z"/>
					</g>
					<g>
						<path class="st18" d="M320.2,156c5,0.6,9.8,0.1,14.5-1.6c1-0.3,0.6-1.9-0.4-1.6c-4.6,1.6-9.3,2.1-14.1,1.5
							C319.2,154.3,319.2,155.9,320.2,156L320.2,156z"/>
					</g>
					<g>
						<path class="st18" d="M198.1,162.5c-0.1-3.7-0.6-7.4-1.6-11c-0.3-1-1.9-0.6-1.6,0.4c0.9,3.5,1.5,7,1.5,10.5
							C196.5,163.5,198.1,163.5,198.1,162.5L198.1,162.5z"/>
					</g>
					<g>
						<path class="st18" d="M194.5,165.8c-2.5-8.4-6.9-15.7-13.2-21.8c-0.8-0.7-1.9,0.4-1.2,1.2c6.1,5.9,10.3,13,12.7,21.1
							C193.2,167.3,194.8,166.8,194.5,165.8L194.5,165.8z"/>
					</g>
					<g>
						<path class="st18" d="M147.5,153.5c7.1-3.9,15.3-3.7,22.1,0.6c0.9,0.6,1.7-0.9,0.8-1.4c-7.4-4.6-16.2-4.8-23.8-0.6
							C145.7,152.6,146.5,154,147.5,153.5L147.5,153.5z"/>
					</g>
					<g>
						<path class="st18" d="M159.8,157.7c2-0.1,4,0.5,5.6,1.8c0.8,0.7,2-0.5,1.2-1.2c-1.9-1.6-4.2-2.4-6.7-2.3
							C158.8,156.1,158.8,157.7,159.8,157.7L159.8,157.7z"/>
					</g>
					<g>
						<path class="st18" d="M164.4,142.3c2.9,0,5.8,0,8.7,0c1.1,0,1.1-1.6,0-1.6c-2.9,0-5.8,0-8.7,0
							C163.4,140.6,163.4,142.3,164.4,142.3L164.4,142.3z"/>
					</g>
					<g>
						<path class="st18" d="M295.1,203.5c2.1-3.7,2.8-7.8,2.2-12.1c-0.2-1-1.7-0.6-1.6,0.4c0.5,3.8-0.2,7.5-2.1,10.8
							C293.2,203.6,294.6,204.5,295.1,203.5L295.1,203.5z"/>
					</g>
					<g>
						<path class="st18" d="M194.3,184.8c-1.5,4.4-2,8.9-1.4,13.6c0.1,1,1.8,1,1.6,0c-0.6-4.5-0.2-8.8,1.3-13.1
							C196.2,184.2,194.6,183.8,194.3,184.8L194.3,184.8z"/>
					</g>
					<g>
						<path class="st16" d="M230.2,152.8c-2.4,0.7-7.9,2.8-1.1,9.9l2-3.1c0,0,7.1,11,19.3,10.8c0,0-3.4-3.4-2-6.8l4.5,3.4
							c0,0,0.8-5.4,2.3-6.5c1.4-1.1,1.1,3.7,1.1,3.7s5.4-4.2,5.7-6.8C262.2,154.8,250.9,146.3,230.2,152.8z"/>
						<path class="st5" d="M257.1,152.9c-5.1-2.4-14.3-4.1-26.9-0.1c-0.6,0.2-1.4,0.5-2.1,0.9c2,2.6,8.6,10.1,18.6,9.9
							c0,0-3.4-3.4-2-6.8l4.5,3.4c0,0,0.8-5.4,2.3-6.5c1.4-1.1,1.1,3.7,1.1,3.7S255.4,155.1,257.1,152.9z"/>
						<g>
							<path class="st18" d="M236,153.6c-0.6,3.7,0.1,7.2,2.1,10.3c0.6,0.9,2,0.1,1.4-0.8c-1.8-2.7-2.5-5.8-1.9-9.1
								C237.7,153,236.1,152.5,236,153.6L236,153.6z"/>
						</g>
						<g>
							<path class="st18" d="M242.5,152.7c0,1.2,0,2.4,0,3.6c0,1.1,1.6,1.1,1.6,0c0-1.2,0-2.4,0-3.6
								C244.2,151.7,242.5,151.7,242.5,152.7L242.5,152.7z"/>
						</g>
						<g>
							<path class="st18" d="M248.4,162.7c-0.9-3.2,1.1-6.5,4.3-7.3c1-0.2,0.6-1.8-0.4-1.6c-4.1,0.9-6.6,5.3-5.5,9.3
								C247.1,164.2,248.7,163.7,248.4,162.7L248.4,162.7z"/>
						</g>
					</g>
				</g>
			</g>
			<g>
				<path class="st19" d="M203.4,178.6c0,0-11.6,3.9-12.8,1.9C189.5,178.6,193.8,173.1,203.4,178.6z"/>
				<path class="st19" d="M185.1,173.9c0,0-15.7,2.1-16.7-0.6C167.4,170.5,174.1,164.7,185.1,173.9z"/>
				<path class="st19" d="M188.6,189c0,0-10.5,6.7-12.1,5.1C174.9,192.4,177.8,186,188.6,189z"/>
				<path class="st19" d="M283.6,177.4c0,0,11.6,3.9,12.8,1.9C297.6,177.4,293.3,172,283.6,177.4z"/>
				<path class="st19" d="M302,172.8c0,0,15.7,2.1,16.7-0.6C319.7,169.4,313,163.5,302,172.8z"/>
				<path class="st19" d="M298.5,187.8c0,0,10.5,6.7,12.1,5.1C312.2,191.2,309.3,184.8,298.5,187.8z"/>
			</g>
			<g class="st2">
				<path class="st9" d="M275.5,173.3c-4.6-2.4-8.8-5.4-12.7-8.9c-2.4-2.1,1.1-5.6,3.5-3.5c3.6,3.2,7.4,5.9,11.7,8.1
					C280.8,170.5,278.3,174.8,275.5,173.3L275.5,173.3z"/>
			</g>
			<g>
				<path class="st20" d="M275.5,171.6c-4.6-2.4-8.8-5.4-12.7-8.9c-2.4-2.1,1.1-5.6,3.5-3.5c3.6,3.2,7.4,5.9,11.7,8.1
					C280.8,168.9,278.3,173.1,275.5,171.6L275.5,171.6z"/>
			</g>
			<g class="st2">
				<path class="st9" d="M212.8,175.4c4.6-2.4,8.8-5.4,12.7-8.9c2.4-2.1-1.1-5.6-3.5-3.5c-3.6,3.2-7.4,5.9-11.7,8.1
					C207.5,172.7,210,176.9,212.8,175.4L212.8,175.4z"/>
			</g>
			<g>
				<path class="st20" d="M212.3,173.6c4.6-2.4,8.8-5.4,12.7-8.9c2.4-2.1-1.1-5.6-3.5-3.5c-3.6,3.2-7.4,5.9-11.7,8.1
					C207.1,170.8,209.5,175,212.3,173.6L212.3,173.6z"/>
			</g>
			<g>
				<g>
					<path class="st13" d="M277.2,180.2c2.1-0.2,4.1-1.1,5.6-2.6c1.4-1.4-0.8-3.5-2.1-2.1c-0.9,0.9-2.1,1.6-3.5,1.7
						c-0.8,0.1-1.5,0.6-1.5,1.5C275.7,179.4,276.4,180.2,277.2,180.2L277.2,180.2z"/>
				</g>
			</g>
			<g>
				<g>
					<path class="st13" d="M281,184c2.1,0.5,4.4-0.2,5.8-1.9c0.5-0.6,0.6-1.5,0-2.1c-0.5-0.5-1.6-0.6-2.1,0
						c-0.7,0.9-1.7,1.4-2.9,1.1C280,180.7,279.2,183.6,281,184L281,184z"/>
				</g>
			</g>
			<g>
				<g>
					<path class="st13" d="M212.1,178.8c-0.9-0.2-1.6-0.7-2.2-1.3c-1.4-1.4-3.5,0.8-2.1,2.1c1,1,2.2,1.7,3.6,2.1
						C213.1,182.2,213.9,179.3,212.1,178.8L212.1,178.8z"/>
				</g>
			</g>
			<g>
				<g>
					<path class="st13" d="M208.3,181.8c-0.7,0.2-1.5-0.1-1.7-1c-0.2-0.8-1.1-1.3-1.8-1c-0.8,0.2-1.2,1.1-1,1.8
						c0.5,2.3,3.1,3.8,5.4,3.1C210.9,184.1,210.2,181.2,208.3,181.8L208.3,181.8z"/>
				</g>
			</g>
			<path class="st8" d="M323.3,243.9c1.2,0.4,2.7,1.5,2.5,4.6c-0.3,5.2-6.9,6.8-6.9,6.8s3.9-0.9,4.4,3.7c0.6,4.6-2.5,6.2-2.5,6.2
				s1,2.7,3.5,0.9c1.9-3.4-1-12.2-1-12.2C328.4,251.4,332,242.3,323.3,243.9z"/>
			<g class="st2">
				<path class="st9" d="M333.7,260.9c1.1-0.2,1.9-0.7,1.9-0.7S334.7,260.5,333.7,260.9z"/>
				<path class="st9" d="M334.3,250.7C334.3,250.6,334.4,250.6,334.3,250.7C334.4,250.6,334.3,250.6,334.3,250.7z"/>
				<path class="st9" d="M337.4,262.2c-2.3,1.4-4.8,2.3-6.3,1.6c-1.8-0.8,0.7-2.1,2.6-2.9c-1.1,0.3-2.5,0.3-3.6-0.7
					c-2.1-1.9,5.3-4.5,5.3-4.5c-4.1,1.5-7,1.1-7.2-0.9c-0.2-1.9,5.3-3.8,6-4.1c-0.6,0.2-5.4,1.7-7.3-0.4c-0.8-0.9,0-1.9,1.3-2.8
					c-1.3,0.4-2.3,0.8-2.5,1.1c-3,3.5,2.6,8.1,2.6,11.9c0,1.3-0.4,2.6,0.3,3.7c0.6,1.1,2,1.4,3.2,1.2
					C334.4,264.6,336.2,263.6,337.4,262.2z"/>
			</g>
			<path class="st7" d="M304.3,337.1c7.3-9.7,21.8-11.5,21.8-11.5s-34.6-22-41.5-29.3c-15,3.3-29.3,6.4-29.6,6.4
				c-0.6,0-25.1-2.2-34.6-4.1c-3.2,4.4-9.6,8-13.4,10.6c-6.1,4.2-12.3,8.8-19.3,11.4c0.2,0,0.3,0.1,0.5,0.1c0.5,0,1,0,1.5,0.1
				c0.7,0,1.6-0.1,2.5-0.3c1.7-0.3,25.3-14.3,27.8-15c2.5-0.8,8-0.8,8.5,1.3c0.5,2-6.3,13-6.3,13s9.3-11.5,11.8-11
				c2.5,0.5,20,2.5,26.3,0.5c6.3-2,25.3,17.8,25.3,17.8s-14.8-18.8-12.5-20c2.3-1.3,11.3-5,11.3-5l32.5,22.5c0,0-11.5,6.8-14.8,14.5
				c-0.1,0.3-0.2,0.6-0.2,0.8C302.7,339,303.5,338.1,304.3,337.1z"/>
			<path class="st11" d="M262.8,304.8c7.9-1.3,16.1-3.3,23.2-6.9c-1.1-1-1.9-1.8-2.4-2.5c-0.4-0.6-0.9-1.6-1.4-2.9
				c-6.6,3.2-14.2,4.8-21.2,5.9c-13.1,2.1-26.7,1.7-39.2-2.8c-0.7,2-2.1,3.8-3.8,5.5C232.3,306.6,247.7,307.3,262.8,304.8z"/>
			<g class="st2">
				<g>
					<path class="st9" d="M223.3,308.4c-4.8,6.5-9.5,13-14,19.6c-1.1,1.6,1.5,3.1,2.6,1.5c4.6-6.6,9.3-13.1,14-19.6
						C227,308.4,224.4,306.9,223.3,308.4L223.3,308.4z"/>
				</g>
			</g>
			<g class="st2">
				<g>
					<path class="st9" d="M275.9,311.3c3.4,5.3,7.1,10.4,11.1,15.2c1.2,1.5,3.4-0.7,2.1-2.1c-3.9-4.6-7.4-9.5-10.7-14.6
						C277.5,308.1,274.9,309.6,275.9,311.3L275.9,311.3z"/>
				</g>
			</g>
			<g class="st2">
				<g>
					<path class="st9" d="M286.9,308.1c6,4.8,12,9.6,18,14.4c1.5,1.2,3.6-0.9,2.1-2.1c-6-4.8-12-9.6-18-14.4
						C287.5,304.8,285.4,306.9,286.9,308.1L286.9,308.1z"/>
				</g>
			</g>
			<g class="st2">
				<g>
					<path class="st9" d="M215.4,339.3c7.8,5.4,19,8.7,28.4,7.4c1.9-0.3,1.1-3.2-0.8-2.9c-8.4,1.2-19.2-2.3-26.1-7.1
						C215.3,335.7,213.8,338.3,215.4,339.3L215.4,339.3z"/>
				</g>
			</g>
			<g class="st2">
				<g>
					<path class="st9" d="M225.1,263.2c0.5,8.8-0.1,17.5-1.9,26.1c-0.4,1.9,2.5,2.7,2.9,0.8c1.9-8.9,2.6-17.8,2.1-26.9
						C228,261.2,225,261.2,225.1,263.2L225.1,263.2z"/>
				</g>
			</g>
			<g class="st2">
				<g>
					<path class="st9" d="M277.9,258.4c1.9,1.2,3.5,2.7,4.9,4.3c1.3,1.5,3.4-0.7,2.1-2.1c-1.6-1.9-3.5-3.5-5.6-4.8
						C277.8,254.7,276.3,257.3,277.9,258.4L277.9,258.4z"/>
				</g>
			</g>
			<g class="st2">
				<g>
					<path class="st9" d="M217.1,260.2c-1.2,1.3-2,2.8-2.6,4.4c-0.3,0.8,0.3,1.6,1,1.8c0.8,0.2,1.6-0.3,1.8-1
						c0.4-1.1,1.1-2.2,1.9-3.1c0.5-0.6,0.6-1.5,0-2.1C218.7,259.7,217.7,259.6,217.1,260.2L217.1,260.2z"/>
				</g>
			</g>
			<g class="st2">
				<g>
					<path class="st9" d="M265.4,296.4c4.8-0.9,9.5-2.3,14.1-4.2c1.8-0.7,1-3.6-0.8-2.9c-4.6,1.9-9.2,3.2-14.1,4.2
						C262.7,293.8,263.5,296.7,265.4,296.4L265.4,296.4z"/>
				</g>
			</g>
		</g>
	</g>
	<g>
		<g>
			<path class="st0" d="M148,424.1h-35.4c-2.7,0-4.6-0.2-5.5-0.6c-0.9-0.4-1.4-1-1.4-1.8v-52.8c0-1.4,0.7-2.5,2-3.1
				c1.3-0.6,3.7-0.9,7-0.9h33.5c1.2,0,1.8,1.9,1.8,5.8c0,3.9-0.3,6.8-0.8,8.8c-0.5,2-1.2,3-2,3c-3.6,0-9.7-0.4-18.3-1.1v5.6
				c8.2-0.3,13.6-0.5,16.1-0.5c1.5,0,2.3,1.8,2.3,5.3s-0.3,6.2-0.9,8c-0.6,1.8-1.4,2.7-2.4,2.7l-15.1-0.3v5.3
				c9.7-0.7,16.3-1.1,20-1.1c1.2,0,1.8,1.9,1.8,5.8c0,3.9-0.3,6.8-0.8,8.8C149.5,423.1,148.8,424.1,148,424.1z"/>
			<path class="st0" d="M179.9,421.7c0,0.7-1.7,1.3-5.1,1.8c-3.4,0.4-6.8,0.7-10.2,0.7s-5.6-0.2-6.6-0.6c-1-0.4-1.5-1-1.5-1.8V368
				c0-1.4,1.8-2.5,5.5-3.1c3.6-0.6,8.2-0.9,13.8-0.9c5.6,0,9.2,0,10.8,0c1.6,0,3.6,0.1,5.8,0.3c2.2,0.2,4,0.4,5.3,0.8
				c1.3,0.4,2.8,0.9,4.3,1.5c1.6,0.6,2.8,1.4,3.7,2.4c0.9,1,1.8,2.1,2.6,3.5c1.5,2.4,2.3,5.8,2.3,10.2s-0.7,8.1-2.2,11.2
				c-1.5,3-3.4,5.3-5.9,6.9c6.4,10.1,9.6,16.5,9.6,19.2c0,2.7-5.5,4.1-16.4,4.1c-3.2,0-5.4-0.1-6.6-0.4c-1.2-0.3-2-0.9-2.3-1.8
				l-5.4-17.2l-1.4-0.1V421.7z M179.9,391.7h2.2c3.2,0,4.8-2.5,4.8-7.5c0-2.6-0.4-4.4-1.3-5.4c-0.9-1.1-1.8-1.6-3-1.6h-2.8V391.7z"
				/>
			<path class="st0" d="M239.6,421.7c0,0.7-1.7,1.3-5.1,1.8c-3.4,0.4-6.8,0.7-10.2,0.7s-5.6-0.2-6.6-0.6c-1-0.4-1.5-1-1.5-1.8V368
				c0-1.4,1.8-2.5,5.5-3.1c3.6-0.6,8.2-0.9,13.8-0.9c5.6,0,9.2,0,10.8,0c1.6,0,3.6,0.1,5.8,0.3c2.2,0.2,4,0.4,5.3,0.8
				c1.3,0.4,2.8,0.9,4.3,1.5c1.6,0.6,2.8,1.4,3.7,2.4c0.9,1,1.8,2.1,2.6,3.5c1.5,2.4,2.3,5.8,2.3,10.2s-0.7,8.1-2.2,11.2
				c-1.5,3-3.4,5.3-5.9,6.9c6.4,10.1,9.6,16.5,9.6,19.2c0,2.7-5.5,4.1-16.4,4.1c-3.2,0-5.4-0.1-6.6-0.4c-1.2-0.3-2-0.9-2.3-1.8
				l-5.4-17.2l-1.4-0.1V421.7z M239.6,391.7h2.2c3.2,0,4.8-2.5,4.8-7.5c0-2.6-0.4-4.4-1.3-5.4c-0.9-1.1-1.8-1.6-3-1.6h-2.8V391.7z"
				/>
			<path class="st0" d="M304.2,424.8c-4.6,0-8.6-0.4-11.9-1.3c-3.3-0.9-6.4-2.4-9.1-4.6c-5.6-4.4-8.4-12.8-8.4-25.3
				c0-5.2,0.8-9.8,2.3-13.7c1.5-3.9,3.7-7,6.4-9.3c5.3-4.4,12.3-6.7,20.8-6.7c4.4,0,8.2,0.4,11.5,1.2c3.3,0.8,6.3,2.2,9.2,4.3
				c5.8,4.2,8.8,12.3,8.8,24.2c0,10.7-2.6,18.5-7.9,23.6C320.4,422.3,313.2,424.8,304.2,424.8z M301.4,410.5
				c0.7,0.8,1.6,1.2,2.8,1.2c1.2,0,2.1-0.4,2.8-1.2s1.2-2.5,1.7-5.2c0.4-2.6,0.7-6.3,0.7-11c0-4.7-0.2-8.4-0.7-10.9
				c-0.4-2.6-1-4.2-1.7-5s-1.6-1.2-2.8-1.2c-1.2,0-2.1,0.4-2.8,1.2s-1.2,2.4-1.7,5c-0.4,2.6-0.7,6.2-0.7,10.9c0,4.7,0.2,8.4,0.7,11
				C300.2,408,300.7,409.7,301.4,410.5z"/>
			<path class="st0" d="M362.4,421.7c0,0.7-1.7,1.3-5.1,1.8c-3.4,0.4-6.8,0.7-10.2,0.7c-3.4,0-5.6-0.2-6.6-0.6c-1-0.4-1.5-1-1.5-1.8
				V368c0-1.4,1.8-2.5,5.5-3.1c3.6-0.6,8.2-0.9,13.8-0.9c5.6,0,9.2,0,10.8,0c1.6,0,3.6,0.1,5.8,0.3c2.2,0.2,4,0.4,5.3,0.8
				c1.3,0.4,2.8,0.9,4.3,1.5c1.6,0.6,2.8,1.4,3.7,2.4c0.9,1,1.8,2.1,2.6,3.5c1.5,2.4,2.3,5.8,2.3,10.2s-0.7,8.1-2.2,11.2
				c-1.5,3-3.4,5.3-5.9,6.9c6.4,10.1,9.6,16.5,9.6,19.2c0,2.7-5.5,4.1-16.4,4.1c-3.2,0-5.4-0.1-6.6-0.4c-1.2-0.3-2-0.9-2.3-1.8
				l-5.4-17.2l-1.4-0.1V421.7z M362.4,391.7h2.2c3.2,0,4.8-2.5,4.8-7.5c0-2.6-0.4-4.4-1.3-5.4c-0.9-1.1-1.8-1.6-3-1.6h-2.8V391.7z"
				/>
		</g>
		<g>
			<g class="st2">
				<path class="st9" d="M371.9,358.2c0,2.1-0.5,4-1.4,5.9c-0.2,0.5,0.5,0.9,0.7,0.4c1-2,1.5-4.1,1.5-6.3
					C372.7,357.7,371.9,357.7,371.9,358.2L371.9,358.2z"/>
			</g>
			<g class="st2">
				<path class="st9" d="M369.1,358.2c-0.7,1-1.3,2.1-1.9,3.1c-0.3,0.5,0.5,0.9,0.7,0.4c0.6-1.1,1.2-2.1,1.9-3.1
					C370.1,358.2,369.4,357.8,369.1,358.2L369.1,358.2z"/>
			</g>
			<g>
				<path class="st6" d="M393.8,358.9c-0.1,2.3-0.2,4.6-0.1,6.9c0.1,1.9,1.1,3.6,0.7,5.5c0,0.2-0.1,0.5-0.3,0.7
					c-0.4,0.5-1.2,0.4-1.9,0.3c0.1,0.5,0.3,1,0.1,1.5c-0.4,1.3-1.9,0.9-2.3,0c-0.3-0.6-0.4-1.2-1-1.5c-0.8-0.5-1.8,0.2-2.1,1.1
					c-0.3,0.8-0.1,1.8,0,2.7c0.2,2-0.1,4-0.8,5.8c-0.2,0.5-0.6,1.2-1.2,1.2c-0.6,0-1-0.5-1.2-1c-1.4-2.7-1.6-5.9-1.5-8.9
					c0-1,0.1-2.2-0.5-3c-0.7-1-2.2-1.2-3.4-1.1c-1.2,0.1-2.5,0.5-3.7,0.3c-2-0.3-3.6-2.2-3.6-4.2c-1.6,1-3.6,1.4-5.5,1
					c-0.6-0.1-1.2-0.4-1.3-0.9c-0.1-0.4,0.2-0.9,0.4-1.2c5.1-7.1,5.8-18.3,17.1-18.3c4.3,0,10.5,2.8,11.9,7.2
					C393.9,353.8,393.9,356.1,393.8,358.9z"/>
				<path class="st7" d="M393.8,358.9c-0.1,2.3-0.2,4.6-0.1,6.9c0.1,1.9,1.1,3.6,0.7,5.5c0,0.2-0.1,0.5-0.3,0.7
					c-0.4,0.5-1.2,0.4-1.9,0.3c0.1,0.5,0.3,1,0.1,1.5c-0.4,1.3-1.9,0.9-2.3,0c-0.3-0.6-0.4-1.2-1-1.5c-0.8-0.5-1.8,0.2-2.1,1.1
					c-0.3,0.8-0.1,1.8,0,2.7c0.2,2-0.1,4-0.8,5.8c-0.2,0.5-0.6,1.2-1.2,1.2c-0.6,0-1-0.5-1.2-1c-1.4-2.7-1.6-5.9-1.5-8.9
					c0-1,0.1-2.2-0.5-3c-0.7-1-2.2-1.2-3.4-1.1c-1.2,0.1-2.5,0.5-3.7,0.3c-2-0.3-3.6-2.2-3.6-4.2c-1.6,1-3.6,1.4-5.5,1
					c-0.6-0.1-1.2-0.4-1.3-0.9c-0.1-0.4,0.2-0.9,0.4-1.2c5.1-7.1,5.8-18.3,17.1-18.3c4.3,0,10.5,2.8,11.9,7.2
					C393.9,353.8,393.9,356.1,393.8,358.9z"/>
				<path class="st6" d="M394.1,368.1c-0.2-0.8-0.4-1.5-0.4-2.4c-0.1-2.3,0-4.6,0.1-6.9c0.1-2.7,0.1-5.1-0.1-5.9
					c-1.4-4.5-7.6-7.2-11.9-7.2c-10.3,0-11.8,9.4-15.9,16.4c1.9,0.3,3.8,0,5.4-1c0,2,1.6,3.9,3.6,4.2c1.2,0.2,2.5-0.2,3.7-0.3
					c1.2-0.1,2.7,0.1,3.4,1.1c0.6,0.8,0.6,2,0.5,3c-0.1,3,0,6.2,1.5,8.9c0.3,0.5,0.7,1,1.2,1c0.6,0,1-0.6,1.2-1.2
					c0.2-0.5,0.4-1,0.5-1.6c0-0.1,0-0.1,0-0.2c-0.1-0.9-0.3-1.8,0-2.7c0.1-0.2,0.2-0.4,0.3-0.5c0-0.3,0-0.6,0-0.8
					c-0.1-0.9-0.3-1.8,0-2.7c0.3-0.8,1.3-1.5,2.1-1.1c0.5,0.3,0.7,1,1,1.5c0.5,1,2,1.3,2.3,0c0.1-0.5,0-1-0.1-1.5
					C393.1,368.3,393.7,368.4,394.1,368.1z"/>
				<path class="st7" d="M393.7,352.9c-1.4-4.5-7.6-7.2-11.9-7.2c-8.2,0-10.8,5.9-13.6,11.9c0.3,0.4,0.8,0.5,1.3,0.5
					c1.8,0,3.6-0.7,4.9-1.9c0.4,1.9,2.2,3.3,4.1,3.2c1.2-0.1,2.3-0.6,3.4-1c1.1-0.4,2.5-0.4,3.4,0.4c0.7,0.7,0.9,1.7,1.1,2.7
					c0.5,2.8,1.2,5.7,3,8c0.3,0.4,0.8,0.8,1.3,0.7c0.5-0.1,0.8-0.8,0.9-1.3c0.3-1.8,0.2-3.7-0.3-5.5c-0.2-0.8-0.6-1.6-0.5-2.5
					c0.1-0.8,1-1.6,1.8-1.4c0.6,0.2,0.9,1,1.4,1.5c0-0.6,0-1.3,0.1-1.9C393.9,356.1,393.9,353.8,393.7,352.9z"/>
				<path class="st21" d="M394.3,344.6c0.5,2.6,0.6,5.8,1.7,8.2c0.4,0.9,3.4,5.1,0.2,4.6c0,0.9-0.3,2.2-1.4,2.3
					c-1.2,0-1.4-1.6-2.3-1.9c-0.8-0.3-1.6,0.5-1.8,1.4c-0.1,0.8,0.2,1.7,0.5,2.5c0.5,1.8,0.7,3.7,0.3,5.5c-0.1,0.5-0.3,1.2-0.9,1.3
					c-0.5,0.1-1-0.3-1.3-0.7c-1.8-2.2-2.6-5.1-3-8c-0.2-1-0.3-2-1.1-2.7c-0.9-0.8-2.2-0.7-3.4-0.4c-1.1,0.4-2.2,0.9-3.4,1
					c-1.9,0.1-3.7-1.3-4.1-3.2c-1.3,1.2-3.1,1.9-4.9,1.9c-0.5,0-1.2-0.1-1.4-0.6c-0.2-0.4,0-0.8,0.2-1.2c3.4-7.5,2-18,12.4-20.1
					c4-0.8,10.2,0.6,12.3,4.5C393.5,339.9,393.9,342.1,394.3,344.6z"/>
				<path class="st5" d="M394.6,355.7c1.1,0,1.5-1.3,1.4-2.3c0.1,0,0.1,0,0.2,0c-0.1-0.2-0.2-0.4-0.3-0.6c-1-2.5-1.2-5.6-1.7-8.2
					c-0.4-2.6-0.8-4.7-1.2-5.5c-2.1-3.9-8.4-5.3-12.3-4.5c-9.4,1.9-9.2,10.6-11.5,17.8c0.1,0,0.2,0,0.2,0c1.8,0,3.6-0.7,4.9-1.9
					c0.4,1.9,2.2,3.3,4.1,3.2c1.2-0.1,2.3-0.6,3.4-1c1.1-0.4,2.5-0.4,3.4,0.4c0.7,0.7,0.9,1.7,1.1,2.7c0.5,2.8,1.2,5.7,3,8
					c0.3,0.4,0.8,0.8,1.3,0.7c0.5-0.1,0.8-0.8,0.9-1.3c0-0.1,0-0.2,0-0.3c-0.1-0.4-0.2-0.8-0.3-1.1c-0.2-0.8-0.6-1.6-0.5-2.5
					c0.1-0.4,0.2-0.7,0.5-1c-0.1-0.2-0.1-0.4-0.1-0.6c-0.2-0.8-0.6-1.6-0.5-2.5c0.1-0.8,1-1.6,1.8-1.4
					C393.3,354.1,393.5,355.7,394.6,355.7z"/>
				<path class="st21" d="M394.3,344.5c-0.4-2.5-0.8-4.6-1.2-5.4c-2.1-3.9-8.4-5.3-12.3-4.5c-8.5,1.7-9.1,9.1-10.9,15.9
					c0.6,0.9,2.1,0.9,3,0.2c0.9-0.7,1.4-1.9,1.7-3.1c0.3-1.1,0.6-2.3,1.3-3.2c1.4,0.4,0.6,3.3,2,3.7c0.6,0.2,1.2-0.2,1.5-0.7
					c0.3-0.5,0.4-1.1,0.6-1.7c0.6-1.7,2.5-3.2,4-2.2c0.7,0.5,1.1,1.3,1.6,2c0.5,0.7,1.5,1.3,2.2,0.9c0.7-0.4,0.7-1.6,1.4-2.1
					c1.2-0.9,2.8,1.1,4.3,0.8C393.8,345,394,344.8,394.3,344.5z"/>
				<path class="st22" d="M377.2,333c2.3-1.3,4.9-2.2,7.5-1.8c4.2,0.7,7.1,4.5,9.2,8.2c0.4,0.8,0.9,1.6,0.9,2.5c0,0.9-0.5,1.8-1.4,2
					c-1.5,0.3-3.1-1.6-4.3-0.8c-0.7,0.5-0.7,1.7-1.4,2.1c-0.7,0.4-1.7-0.2-2.2-0.9c-0.5-0.7-0.8-1.6-1.6-2c-1.5-0.9-3.4,0.6-4,2.2
					c-0.2,0.6-0.3,1.2-0.6,1.7c-0.3,0.5-0.9,0.9-1.5,0.7c-1.4-0.5-0.6-3.3-2-3.7c-0.8,0.9-1,2.1-1.3,3.2c-0.3,1.1-0.7,2.3-1.7,3.1
					c-0.9,0.7-2.5,0.7-3.1-0.3c-0.5-0.8-0.1-1.9,0.2-2.8C371.7,341,371.5,336.1,377.2,333z"/>
				<path class="st13" d="M393.8,339.3c-2.1-3.7-5-7.4-9.1-8.1c-2.6-0.4-5.2,0.5-7.5,1.8c-5.7,3.2-5.6,8-7.3,13.6
					c0,0.1-0.1,0.2-0.1,0.3c0.7,0.2,1.5,0,2.1-0.4c0.9-0.7,1.4-1.9,1.7-3.1c0.3-1.1,0.6-2.3,1.3-3.2c1.4,0.4,0.6,3.3,2,3.7
					c0.6,0.2,1.2-0.2,1.5-0.7c0.3-0.5,0.4-1.1,0.6-1.7c0.6-1.7,2.5-3.2,4-2.2c0.7,0.5,1.1,1.3,1.6,2c0.5,0.7,1.5,1.3,2.2,0.9
					c0.7-0.4,0.7-1.6,1.4-2.1c1.2-0.9,2.8,1.1,4.3,0.8C393.2,340.5,393.6,339.9,393.8,339.3z"/>
				<path class="st23" d="M383.3,339.2c-0.5-0.2-0.1-0.9,0.4-0.7c1.5,0.6,2.6,1.8,3.1,3.3c0.2,0.5-0.6,0.7-0.8,0.2
					C385.6,340.8,384.6,339.8,383.3,339.2L383.3,339.2z M384.1,334c2.7,0.6,4.2,2.8,5.6,4.9c0.3,0.4,1,0,0.7-0.4
					c-1.5-2.3-3.2-4.7-6.1-5.3C383.8,333.1,383.6,333.9,384.1,334L384.1,334z M375.8,336.7c-1.6,2.6-2.7,5.4-3.3,8.3
					c-0.1,0.5,0.7,0.7,0.8,0.2c0.6-2.9,1.6-5.6,3.2-8.2C376.8,336.7,376.1,336.2,375.8,336.7L375.8,336.7z M376.6,341.3
					c0.6,0.7,1,1.5,1.1,2.4c0,0.5,0.9,0.5,0.8,0c-0.1-1.2-0.6-2.2-1.4-3C376.8,340.3,376.3,340.9,376.6,341.3L376.6,341.3z"/>
				<g>
					<path class="st5" d="M390.4,347.6c-0.4,1.3-0.7,2.6-0.8,3.9c-0.1,0.7,1,0.7,1.1,0c0.1-1.2,0.4-2.4,0.8-3.6
						C391.7,347.2,390.7,346.9,390.4,347.6L390.4,347.6z"/>
				</g>
				<g>
					<path class="st5" d="M383.4,349.7c1.5,2.4,2.5,4.9,3,7.7c0.1,0.7,1.2,0.4,1.1-0.3c-0.5-2.8-1.6-5.5-3.1-7.9
						C384,348.6,383,349.1,383.4,349.7L383.4,349.7z"/>
				</g>
				<g>
					<path class="st5" d="M375.5,348.1c0,2.4-0.7,4.6-2,6.6c-0.4,0.6,0.5,1.1,0.9,0.6c1.4-2.1,2.2-4.6,2.2-7.1
						C376.6,347.4,375.5,347.4,375.5,348.1L375.5,348.1z"/>
				</g>
				<g>
					<path class="st5" d="M377.2,349.8c0,0.8,0,1.6,0,2.4c0,0.7,1.1,0.7,1.1,0c0-0.8,0-1.6,0-2.4
						C378.3,349.1,377.2,349.1,377.2,349.8L377.2,349.8z"/>
				</g>
				<g class="st2">
					<path class="st9" d="M382.4,363.5c-0.4,1.5-0.1,3.2-0.1,4.7c0.1,2,0.2,4.1,0.2,6.1c0,0.5,0.8,0.5,0.8,0
						c-0.1-1.8-0.1-3.5-0.2-5.3c-0.1-1.7-0.4-3.7,0-5.3C383.4,363.2,382.6,363,382.4,363.5L382.4,363.5z"/>
				</g>
				<g class="st2">
					<path class="st9" d="M384.8,378.1c1.2,0.3,1.7-0.9,1.9-1.9c0.5-2.7,0.1-5.9-0.1-8.6c0-0.5-0.9-0.5-0.8,0
						c0.1,0.9,0.6,10-0.7,9.7C384.5,377.2,384.3,378,384.8,378.1L384.8,378.1z"/>
				</g>
				<g class="st2">
					<path class="st9" d="M391.9,360.5c0.1,2.2,0.3,4.4,0.5,6.6c0,0.5,0.9,0.5,0.8,0c-0.2-2.2-0.4-4.4-0.5-6.6
						C392.7,360,391.9,360,391.9,360.5L391.9,360.5z"/>
				</g>
				<g>
					<g>
						<path class="st5" d="M382.9,337.5c1.1,0,1.1-1.6,0-1.6C381.8,335.8,381.8,337.5,382.9,337.5L382.9,337.5z"/>
					</g>
					<g>
						<path class="st5" d="M388.5,338c0.1-0.1,0.1-0.2,0.2-0.3c0.5-0.9-0.9-1.8-1.4-0.8c-0.1,0.1-0.1,0.2-0.2,0.3
							C386.6,338.1,388,338.9,388.5,338L388.5,338z"/>
					</g>
					<g>
						<path class="st5" d="M387.8,333c1.1,0,1.1-1.6,0-1.6C386.7,331.4,386.7,333,387.8,333L387.8,333z"/>
					</g>
					<g>
						<path class="st5" d="M381.6,332.4c1.1,0,1.1-1.6,0-1.6C380.6,330.8,380.6,332.4,381.6,332.4L381.6,332.4z"/>
					</g>
					<g>
						<path class="st5" d="M376.4,335c1.1,0,1.1-1.6,0-1.6C375.4,333.4,375.4,335,376.4,335L376.4,335z"/>
					</g>
					<g>
						<path class="st5" d="M377.2,340.4c1.1,0,1.1-1.6,0-1.6C376.1,338.7,376.1,340.4,377.2,340.4L377.2,340.4z"/>
					</g>
					<g>
						<path class="st5" d="M372.1,340.5c0.1,0,0.1,0,0.2,0c1.1,0,1.1-1.6,0-1.6c-0.1,0-0.1,0-0.2,0
							C371.1,338.9,371.1,340.5,372.1,340.5L372.1,340.5z"/>
					</g>
					<g>
						<path class="st5" d="M378.6,345.4c1.1,0,1.1-1.6,0-1.6C377.5,343.8,377.5,345.4,378.6,345.4L378.6,345.4z"/>
					</g>
				</g>
			</g>
		</g>
	</g>
</g>
<g id="DESIGNED_BY_FREEPIK">
</g>
</svg>
